<?xml version="1.0" encoding="UTF-8"?>
<!DOCTYPE svg PUBLIC "-//W3C//DTD SVG 1.1//EN" "http://www.w3.org/Graphics/SVG/1.1/DTD/svg11.dtd">
<svg version="1.1" xmlns="http://www.w3.org/2000/svg" xmlns:xlink="http://www.w3.org/1999/xlink" x="0" y="0" width="559" height="620" viewBox="0, 0, 559, 620">
  <defs>
    <radialGradient id="Gradient_1" gradientUnits="userSpaceOnUse" cx="97.363" cy="197.716" r="27.871">
      <stop offset="0" stop-color="#F4C4B4"/>
      <stop offset="0.007" stop-color="#F4C4B4"/>
      <stop offset="0.778" stop-color="#F9D8BE"/>
      <stop offset="1" stop-color="#F9D8BE"/>
    </radialGradient>
    <radialGradient id="Gradient_2" gradientUnits="userSpaceOnUse" cx="239.838" cy="215.127" r="27.871">
      <stop offset="0" stop-color="#F4C4B4"/>
      <stop offset="0.007" stop-color="#F4C4B4"/>
      <stop offset="0.778" stop-color="#F9D8BE"/>
      <stop offset="1" stop-color="#F9D8BE"/>
    </radialGradient>
    <clipPath id="Clip_1">
      <path d="M0,620 L558.646,620 L558.646,0.311 L0,0.311 z"/>
    </clipPath>
  </defs>
  <g id="Layer_1">
    <path d="M95.423,203.742 C94.115,208.667 81.089,254.194 100.379,286.603 C100.379,286.603 129.43,243.785 148.252,224.292" fill="#7D573B"/>
    <path d="M94.269,203.435 C93.89,204.859 92.497,209.805 91.207,216.859 C89.915,223.92 88.718,233.116 88.718,243.128 C88.72,257.437 91.157,273.437 99.352,287.215 C99.561,287.565 99.936,287.786 100.344,287.798 C100.751,287.81 101.139,287.611 101.368,287.274 C101.369,287.272 101.819,286.609 102.648,285.402 C105.552,281.179 113.075,270.345 121.923,258.444 C130.767,246.547 140.95,233.572 149.112,225.122 C149.57,224.647 149.557,223.891 149.082,223.432 C148.608,222.974 147.851,222.987 147.393,223.462 C137.9,233.296 125.926,248.889 116.293,262.052 C106.664,275.211 99.395,285.925 99.39,285.933 L100.379,286.603 L101.406,285.992 C93.519,272.751 91.105,257.173 91.107,243.128 C91.107,233.306 92.284,224.245 93.557,217.289 C94.831,210.327 96.193,205.497 96.578,204.049 C96.747,203.411 96.368,202.757 95.73,202.587 C95.092,202.418 94.438,202.798 94.269,203.435" fill="#1A1919"/>
    <path d="M146.022,218.082 C144.713,223 131.685,268.532 150.978,300.941 C150.978,300.941 180.027,258.121 198.849,238.63" fill="#7D573B"/>
    <path d="M144.867,217.775 C144.489,219.197 143.095,224.142 141.804,231.196 C140.512,238.257 139.315,247.453 139.315,257.466 C139.317,271.775 141.755,287.776 149.951,301.552 C150.159,301.903 150.535,302.124 150.942,302.136 C151.349,302.148 151.738,301.949 151.966,301.612 C151.967,301.61 152.418,300.947 153.247,299.74 C156.15,295.517 163.673,284.682 172.52,272.781 C181.364,260.883 191.547,247.909 199.709,239.46 C200.167,238.985 200.154,238.229 199.679,237.77 C199.204,237.312 198.448,237.325 197.99,237.8 C188.497,247.633 176.524,263.226 166.891,276.389 C157.263,289.549 149.994,300.263 149.989,300.271 L150.978,300.941 L152.004,300.33 C144.117,287.089 141.702,271.511 141.704,257.466 C141.704,247.643 142.882,238.582 144.155,231.626 C145.43,224.664 146.792,219.835 147.177,218.389 C147.346,217.752 146.967,217.097 146.329,216.927 C145.692,216.758 145.037,217.137 144.867,217.775" fill="#1A1919"/>
    <path d="M106.738,253.633 C106.738,253.633 107.708,289.512 104.542,293.162 C101.267,296.941 93.562,296.457 82.583,300.849 L66.112,305.241 C66.112,305.241 120.451,345.072 147.366,357.945 C174.279,370.815 170.491,333.153 177.514,320.276 C184.538,307.409 177.598,301.853 177.598,301.853 C177.598,301.853 175.45,300.269 171.176,299.467 C165.351,298.374 152.579,296.113 149.454,295.882 C148.305,295.801 147.701,295.877 146.194,294.871 C145.401,294.346 145.183,294.043 144.861,291.939 C143.903,285.621 145.999,273.476 145.999,273.476 C145.999,273.476 120.781,248.949 106.738,253.633" fill="#F9D8BE"/>
    <path d="M106.738,253.633 L105.545,253.666 C105.545,253.666 105.554,253.986 105.567,254.572 C105.606,256.333 105.685,260.48 105.685,265.434 C105.685,270.824 105.591,277.174 105.255,282.426 C105.088,285.051 104.858,287.404 104.558,289.198 C104.409,290.093 104.241,290.85 104.066,291.41 C103.9,291.969 103.695,292.332 103.641,292.379 C102.985,293.136 102.073,293.722 100.821,294.235 C98.95,295.006 96.365,295.564 93.212,296.323 C90.058,297.085 86.334,298.062 82.139,299.74 L82.583,300.849 L82.275,299.695 L65.805,304.087 C65.36,304.206 65.024,304.567 64.939,305.02 C64.854,305.473 65.035,305.931 65.407,306.203 C65.413,306.208 79.006,316.172 95.973,327.752 C112.949,339.334 133.261,352.519 146.851,359.022 C150.794,360.907 154.171,361.779 157.119,361.78 C159.335,361.782 161.302,361.276 162.996,360.357 C165.97,358.744 168.047,355.952 169.609,352.651 C171.95,347.688 173.204,341.467 174.398,335.592 C174.993,332.657 175.567,329.811 176.231,327.275 C176.892,324.74 177.649,322.516 178.562,320.848 C180.998,316.387 181.852,312.685 181.851,309.715 C181.853,306.782 181.014,304.589 180.154,303.145 C179.295,301.698 178.427,300.988 178.344,300.921 L178.307,300.892 C178.195,300.809 175.881,299.135 171.396,298.294 C168.475,297.746 163.823,296.907 159.502,296.175 C157.341,295.808 155.264,295.469 153.526,295.206 C151.782,294.942 150.396,294.755 149.542,294.691 L149.538,294.691 C148.913,294.65 148.552,294.642 148.239,294.563 C147.924,294.485 147.545,294.335 146.857,293.878 L146.853,293.875 C146.676,293.759 146.58,293.683 146.535,293.637 C146.474,293.568 146.446,293.556 146.35,293.282 C146.26,293.014 146.157,292.524 146.041,291.759 L146.042,291.76 C145.876,290.673 145.804,289.346 145.804,287.923 C145.803,284.806 146.145,281.228 146.489,278.445 C146.661,277.053 146.833,275.858 146.962,275.013 C147.026,274.59 147.08,274.255 147.117,274.027 C147.154,273.798 147.175,273.679 147.175,273.679 C147.242,273.29 147.114,272.896 146.831,272.62 C146.805,272.596 141.522,267.456 134.4,262.291 C130.837,259.708 126.815,257.118 122.734,255.156 C118.652,253.199 114.511,251.851 110.641,251.845 C109.163,251.845 107.724,252.046 106.361,252.501 C105.861,252.667 105.531,253.139 105.545,253.666 L106.738,253.633 L107.116,254.766 C108.201,254.404 109.379,254.232 110.641,254.232 C113.943,254.226 117.808,255.433 121.7,257.308 C127.543,260.113 133.437,264.379 137.844,267.938 C140.048,269.718 141.884,271.321 143.165,272.476 C143.806,273.054 144.309,273.52 144.65,273.841 C144.821,274.001 144.951,274.125 145.038,274.208 L145.166,274.332 L145.999,273.476 L144.822,273.273 C144.819,273.307 143.42,281.365 143.417,287.923 C143.417,289.426 143.49,290.854 143.681,292.118 L143.681,292.12 C143.852,293.201 143.979,293.879 144.275,294.513 C144.423,294.826 144.63,295.115 144.859,295.337 C145.088,295.562 145.316,295.72 145.536,295.866 L145.531,295.863 C146.351,296.413 147.027,296.727 147.678,296.883 C148.33,297.038 148.846,297.032 149.37,297.073 L149.365,297.072 C150.073,297.124 151.456,297.306 153.168,297.566 C158.322,298.346 166.601,299.823 170.956,300.64 C172.988,301.022 174.498,301.585 175.488,302.044 C175.983,302.273 176.347,302.476 176.581,302.616 C176.698,302.686 176.782,302.741 176.834,302.775 L176.886,302.811 L176.894,302.817 L177.183,302.415 L176.89,302.814 L176.894,302.817 L177.183,302.415 L176.89,302.814 L177.598,301.853 L176.852,302.785 L177.185,302.369 L176.845,302.779 L176.852,302.785 L177.185,302.369 L176.845,302.779 C176.853,302.785 177.515,303.338 178.164,304.471 C178.814,305.607 179.462,307.313 179.464,309.715 C179.463,312.224 178.75,315.518 176.466,319.704 C174.85,322.682 173.844,326.654 172.911,330.983 C171.526,337.467 170.335,344.758 168.044,350.288 C166.903,353.053 165.496,355.355 163.741,356.924 C161.979,358.49 159.906,359.383 157.119,359.393 C154.652,359.395 151.606,358.651 147.881,356.868 C134.555,350.499 114.242,337.331 97.319,325.78 C88.853,320.002 81.226,314.626 75.717,310.694 C72.962,308.728 70.736,307.123 69.2,306.011 C67.664,304.898 66.82,304.28 66.818,304.278 L66.112,305.241 L66.42,306.394 L82.89,302.002 L83.026,301.957 C88.414,299.802 92.996,298.842 96.733,297.936 C98.603,297.481 100.264,297.042 101.726,296.444 C103.183,295.848 104.462,295.077 105.445,293.943 C105.881,293.425 106.116,292.835 106.346,292.117 C106.732,290.866 107.01,289.209 107.238,287.23 C107.914,281.31 108.071,272.55 108.072,265.434 C108.072,258.795 107.932,253.608 107.932,253.601 L106.738,253.633 L107.116,254.766 L106.738,253.633" fill="#1A1919"/>
    <path d="M199.503,244.522 C199.503,244.522 214.696,270.988 155.992,296.74 C155.992,296.74 165.873,274.566 168.619,251.415 C171.36,228.265 199.503,244.522 199.503,244.522" fill="#7D573B"/>
    <path d="M199.503,244.522 L198.467,245.117 L198.707,244.979 L198.465,245.115 L198.467,245.117 L198.707,244.979 L198.465,245.115 C198.503,245.18 200.078,248.033 200.076,252.68 C200.068,257.316 198.544,263.77 192.225,271.255 C185.903,278.733 174.742,287.211 155.512,295.646 L155.992,296.74 L157.083,297.226 C157.104,297.167 167.025,274.94 169.805,251.555 C170.078,249.253 170.608,247.401 171.315,245.925 C172.38,243.711 173.815,242.325 175.517,241.432 C177.219,240.544 179.225,240.17 181.367,240.17 C185.378,240.164 189.805,241.499 193.191,242.858 C194.886,243.536 196.323,244.215 197.332,244.723 C197.837,244.977 198.234,245.188 198.503,245.334 C198.638,245.407 198.741,245.464 198.808,245.502 L198.884,245.545 L198.905,245.557 L199.503,244.522 L198.467,245.117 L199.503,244.522 L200.101,243.488 C200.067,243.469 197.624,242.058 194.079,240.639 C190.53,239.225 185.89,237.786 181.367,237.78 C178.156,237.778 174.944,238.527 172.377,240.667 C171.098,241.733 170,243.136 169.16,244.894 C168.318,246.652 167.73,248.762 167.432,251.274 C166.074,262.729 162.939,273.995 160.142,282.381 C158.744,286.575 157.431,290.049 156.468,292.472 C155.987,293.684 155.594,294.632 155.322,295.276 C155.186,295.598 155.08,295.844 155.008,296.009 C154.937,296.173 154.901,296.253 154.901,296.253 C154.7,296.705 154.796,297.232 155.145,297.582 C155.493,297.933 156.02,298.032 156.472,297.834 C175.924,289.299 187.402,280.654 194.049,272.798 C200.698,264.948 202.473,257.857 202.465,252.68 C202.463,247.319 200.607,244.048 200.539,243.928 C200.435,243.747 200.281,243.592 200.101,243.488 L199.503,244.522" fill="#1A1919"/>
    <path d="M192.574,307.896 C192.574,307.896 209.636,320.693 214.224,351.29 C215.882,362.36 223.13,371.172 228.67,384.629 C234.21,398.085 234.498,403.303 240.039,416.757 C245.58,430.212 253.495,445.252 253.495,445.252 C253.495,445.252 233.708,441.293 222.626,472.162 C220.251,476.121 213.919,475.328 210.753,469.788 C207.586,464.249 177.536,315.02 192.574,307.896" fill="#F5CCD8"/>
    <path d="M192.574,307.896 L191.858,308.851 L191.863,308.855 C192.042,308.991 196.227,312.221 200.919,319.123 C205.61,326.026 210.813,336.596 213.043,351.467 C213.905,357.213 216.203,362.31 218.93,367.611 C221.661,372.914 224.832,378.439 227.566,385.083 C230.318,391.769 231.757,396.38 233.214,401.049 C234.671,405.717 236.146,410.442 238.935,417.211 C244.507,430.741 252.43,445.79 252.439,445.808 L253.495,445.252 L253.729,444.081 C253.665,444.069 252.764,443.893 251.264,443.893 C248.344,443.891 243.125,444.567 237.519,448.428 C231.91,452.286 225.973,459.297 221.502,471.759 L222.626,472.162 L221.602,471.548 C221.214,472.192 220.716,472.65 220.129,472.964 C219.542,473.277 218.858,473.442 218.111,473.442 C216.022,473.449 213.451,472.106 211.789,469.196 C211.778,469.181 211.688,468.985 211.59,468.705 C211.191,467.589 210.516,465.08 209.681,461.569 C206.748,449.249 201.715,424.326 197.423,398.081 C193.129,371.841 189.576,344.233 189.58,326.635 C189.578,321.513 189.884,317.24 190.531,314.162 C190.852,312.625 191.262,311.39 191.72,310.52 C192.179,309.642 192.665,309.17 193.085,308.975 L192.574,307.896 L191.858,308.851 L192.574,307.896 L192.063,306.818 C190.994,307.328 190.211,308.259 189.606,309.411 C188.7,311.15 188.126,313.483 187.742,316.378 C187.363,319.271 187.192,322.721 187.192,326.635 C187.193,337.192 188.438,351.124 190.339,366.189 C193.192,388.783 197.527,413.905 201.388,433.807 C203.319,443.759 205.131,452.404 206.582,458.78 C207.308,461.969 207.943,464.589 208.46,466.531 C208.719,467.503 208.948,468.304 209.148,468.932 C209.249,469.247 209.342,469.518 209.432,469.752 C209.523,469.988 209.604,470.181 209.717,470.38 C211.749,473.932 215.025,475.824 218.111,475.83 C219.212,475.83 220.291,475.583 221.252,475.071 C222.212,474.561 223.048,473.782 223.65,472.776 L223.749,472.565 C228.099,460.46 233.738,453.933 238.872,450.395 C244.009,446.86 248.699,446.283 251.264,446.281 C251.92,446.281 252.436,446.319 252.779,446.356 C252.95,446.375 253.079,446.393 253.161,446.406 L253.247,446.42 L253.263,446.423 L253.31,446.176 L253.261,446.422 L253.263,446.423 L253.31,446.176 L253.261,446.422 C253.712,446.513 254.175,446.335 254.451,445.967 C254.727,445.598 254.766,445.103 254.551,444.696 C254.551,444.695 254.43,444.465 254.203,444.029 C252.621,440.983 245.963,428.009 241.142,416.302 C238.39,409.618 236.951,405.007 235.493,400.338 C234.037,395.671 232.562,390.945 229.774,384.174 C226.968,377.361 223.745,371.752 221.053,366.518 C218.356,361.281 216.2,356.437 215.404,351.113 C213.083,335.623 207.591,324.595 202.662,317.442 C197.732,310.288 193.371,307.002 193.29,306.941 C192.937,306.676 192.462,306.629 192.063,306.818 L192.574,307.896" fill="#1A1919"/>
    <path d="M204.912,351.753 C205.661,362.617 208.528,373.108 213.398,383.599 C218.268,394.09 218.598,405.806 214.102,416.668 C209.605,427.532 207.93,438.579 207.555,450.193 C207.181,461.81 210.152,483.456 209.778,490.199 C209.404,496.942 215.361,502.049 214.986,503.171 C214.612,504.294 209.742,518.156 209.742,518.156 C209.742,518.156 208.243,529.018 207.494,527.895 C206.745,526.773 54.644,541.758 54.644,541.758 C61.388,535.764 66.257,497.927 66.257,497.927 C66.257,497.927 62.511,496.053 58.016,492.305 C53.521,488.558 50.523,479.194 48.275,469.455 C46.027,459.715 47.152,448.849 46.777,441.356 C46.403,433.863 39.164,428.615 37.037,421.876 C33.597,410.978 38.142,405.054 39.641,394.189 C41.14,383.325 35.365,364.989 32.369,352.253 C29.373,339.515 31.993,335.018 37.238,326.027 C42.483,317.037 51.396,309.554 59.516,306.306 C69.376,302.36 70.622,305.871 79.237,301.375 C81.486,305.496 126.041,350.116 148.262,346.735 C182.258,341.561 171.316,299.54 170.942,298.416 C170.942,298.416 178.691,300.116 182.466,302.381 C186.161,304.596 190.959,306.781 194.988,310.572" fill="#F5CCD8"/>
    <path d="M203.721,351.835 C204.48,362.856 207.392,373.499 212.315,384.101 C214.813,389.484 216.079,395.185 216.079,400.92 C216.079,406.057 215.064,411.221 212.999,416.211 C208.432,427.245 206.739,438.453 206.362,450.155 C206.339,450.861 206.329,451.6 206.329,452.368 C206.329,458.049 206.905,465.327 207.477,472.124 C208.05,478.911 208.619,485.237 208.617,488.842 C208.617,489.327 208.607,489.761 208.586,490.133 C208.573,490.361 208.567,490.587 208.567,490.811 C208.572,494.272 210.006,497.212 211.366,499.42 C212.048,500.524 212.721,501.453 213.198,502.153 C213.435,502.501 213.623,502.793 213.729,502.989 C213.782,503.085 213.813,503.157 213.821,503.182 L213.824,503.19 L214.278,503.057 L213.81,503.057 C213.81,503.15 213.824,503.187 213.824,503.19 L214.278,503.057 L213.81,503.057 L214.644,503.057 L213.854,502.794 C213.818,502.901 213.809,502.994 213.81,503.057 L214.644,503.057 L213.854,502.794 C213.768,503.052 213.39,504.139 212.882,505.592 C212.119,507.778 211.052,510.82 210.176,513.316 C209.301,515.811 208.618,517.756 208.616,517.761 L208.56,517.993 C208.56,517.994 208.476,518.598 208.338,519.512 C208.131,520.882 207.801,522.942 207.456,524.631 C207.285,525.472 207.107,526.227 206.954,526.717 C206.881,526.959 206.806,527.141 206.783,527.183 L206.779,527.19 L207.294,527.489 L206.89,527.059 C206.795,527.152 206.782,527.189 206.779,527.19 L207.294,527.489 L206.89,527.059 L207.565,527.777 L207.13,526.894 C207.011,526.953 206.939,527.014 206.89,527.059 L207.565,527.777 L207.13,526.894 L207.609,527.866 L207.609,526.783 C207.417,526.782 207.246,526.836 207.13,526.894 L207.609,527.866 L207.609,526.783 L207.609,527.872 L208.233,526.978 C208.094,526.876 207.854,526.78 207.609,526.783 L207.609,527.872 L208.233,526.978 L207.68,527.771 L208.486,527.232 C208.445,527.173 208.377,527.08 208.233,526.978 L207.68,527.771 L208.486,527.232 L208.487,527.233 C208.273,526.932 208.089,526.858 207.977,526.798 C207.774,526.709 207.681,526.702 207.589,526.683 C207.336,526.645 207.135,526.644 206.835,526.642 C205.38,526.643 202.004,526.862 197.082,527.243 C162.718,529.911 54.533,540.569 54.527,540.57 L54.644,541.758 L55.437,542.65 C56.479,541.714 57.333,540.357 58.154,538.674 C59.576,535.73 60.839,531.76 61.968,527.418 C65.342,514.412 67.437,498.104 67.441,498.079 C67.506,497.575 67.246,497.087 66.791,496.859 L66.759,496.843 C66.386,496.652 62.901,494.824 58.78,491.388 C56.799,489.753 54.961,486.626 53.413,482.688 C51.856,478.752 50.555,474.024 49.439,469.187 C48.216,463.898 48.008,458.188 48.01,452.859 C48.009,450.311 48.056,447.849 48.056,445.554 C48.056,444.058 48.036,442.632 47.969,441.297 C47.867,439.237 47.291,437.348 46.48,435.597 C45.26,432.971 43.524,430.632 41.935,428.344 C40.34,426.058 38.901,423.828 38.175,421.517 C37.304,418.754 36.973,416.363 36.972,414.122 C36.972,410.989 37.627,408.122 38.45,404.983 C39.271,401.847 40.257,398.453 40.823,394.353 C41,393.073 41.078,391.714 41.078,390.288 C41.075,384.622 39.841,377.884 38.288,371.125 C36.734,364.37 34.853,357.601 33.531,351.98 C32.679,348.359 32.3,345.457 32.3,342.967 C32.303,339.902 32.861,337.455 33.88,334.933 C34.899,332.414 36.403,329.826 38.269,326.629 C40.816,322.263 44.274,318.234 48.084,314.913 C51.892,311.59 56.052,308.976 59.96,307.414 C62.361,306.453 64.201,305.959 65.758,305.678 C68.087,305.254 69.834,305.315 71.959,305.055 C74.079,304.795 76.467,304.172 79.79,302.433 L79.237,301.375 L78.189,301.947 C78.407,302.338 78.715,302.743 79.166,303.297 C80.838,305.335 84.411,309.093 89.218,313.648 C96.424,320.474 106.361,329.041 116.565,335.933 C121.668,339.379 126.836,342.406 131.786,344.587 C136.736,346.764 141.467,348.107 145.747,348.112 C146.667,348.112 147.567,348.048 148.441,347.915 C153.708,347.115 157.986,345.441 161.414,343.15 C166.563,339.715 169.756,334.912 171.632,329.787 C173.511,324.658 174.104,319.194 174.105,314.275 C174.105,309.942 173.642,306.028 173.16,303.131 C172.919,301.683 172.673,300.489 172.477,299.624 C172.378,299.191 172.292,298.84 172.225,298.58 C172.192,298.449 172.163,298.341 172.139,298.254 L172.074,298.039 L170.942,298.416 L170.686,299.582 C170.686,299.582 170.798,299.607 171.012,299.656 C171.761,299.83 173.708,300.301 175.857,300.968 C178.002,301.629 180.366,302.508 181.852,303.405 C185.64,305.667 190.321,307.813 194.17,311.442 C194.65,311.893 195.406,311.87 195.858,311.39 C196.309,310.91 196.286,310.155 195.806,309.703 C191.597,305.75 186.682,303.526 183.079,301.357 C181.006,300.12 178.082,299.131 175.625,298.404 C173.174,297.684 171.215,297.254 171.198,297.25 C170.777,297.158 170.342,297.298 170.054,297.618 C169.767,297.938 169.673,298.385 169.809,298.793 L169.81,298.794 C169.822,298.834 169.871,299.006 169.934,299.256 C170.386,301.031 171.72,307.106 171.718,314.275 C171.722,320.581 170.681,327.716 167.236,333.554 C165.514,336.477 163.2,339.085 160.088,341.165 C156.975,343.243 153.053,344.798 148.082,345.555 C147.337,345.669 146.558,345.724 145.747,345.724 C140.382,345.737 133.623,343.233 126.579,339.316 C116.001,333.453 104.759,324.493 95.993,316.641 C91.608,312.715 87.839,309.065 85.073,306.22 C83.691,304.799 82.56,303.578 81.733,302.632 C81.321,302.16 80.984,301.756 80.735,301.438 C80.488,301.124 80.323,300.877 80.285,300.803 C79.973,300.231 79.263,300.015 78.685,300.317 C76.597,301.406 75.001,301.988 73.622,302.328 C71.563,302.838 69.911,302.807 67.706,303.009 C65.51,303.211 62.861,303.678 59.073,305.197 C54.861,306.884 50.505,309.635 46.515,313.114 C42.526,316.593 38.906,320.801 36.207,325.426 C34.344,328.621 32.782,331.289 31.667,334.036 C30.552,336.779 29.909,339.605 29.912,342.967 C29.913,345.701 30.327,348.785 31.207,352.526 C32.546,358.219 34.423,364.973 35.962,371.66 C37.501,378.342 38.694,384.965 38.691,390.288 C38.691,391.625 38.617,392.879 38.458,394.026 C37.92,397.93 36.975,401.199 36.141,404.377 C35.31,407.552 34.586,410.649 34.585,414.122 C34.584,416.602 34.958,419.26 35.898,422.235 C37.063,425.89 39.493,428.954 41.58,432.009 C42.628,433.534 43.596,435.05 44.313,436.601 C45.031,438.153 45.5,439.729 45.585,441.416 C45.649,442.69 45.669,444.079 45.669,445.554 C45.669,447.817 45.622,450.282 45.622,452.859 C45.624,458.25 45.822,464.128 47.112,469.724 C48.244,474.625 49.566,479.448 51.193,483.566 C52.829,487.681 54.738,491.109 57.252,493.222 C61.847,497.052 65.666,498.965 65.723,498.994 L66.257,497.927 L65.073,497.774 C65.073,497.776 64.998,498.357 64.853,499.399 C64.343,503.043 62.973,512.26 61.003,521.183 C60.018,525.644 58.882,530.032 57.642,533.59 C57.023,535.367 56.377,536.937 55.726,538.189 C55.08,539.442 54.413,540.373 53.851,540.866 C53.466,541.208 53.344,541.764 53.55,542.236 C53.757,542.709 54.248,542.996 54.761,542.946 C54.767,542.945 56.969,542.728 60.854,542.347 C74.452,541.015 108.598,537.684 140.53,534.687 C156.497,533.188 171.91,531.772 183.922,530.732 C189.929,530.212 195.085,529.785 199.032,529.489 C202.97,529.193 205.735,529.028 206.835,529.029 C207.018,529.029 207.154,529.035 207.2,529.039 L207.21,529.04 L207.315,528.313 L207.088,529.01 L207.21,529.04 L207.315,528.313 L207.088,529.01 L207.42,527.991 L206.887,528.92 C206.983,528.974 207.044,528.995 207.088,529.01 L207.42,527.991 L206.887,528.92 L207.463,527.916 L206.501,528.558 C206.652,528.778 206.795,528.864 206.887,528.92 L207.463,527.916 L206.501,528.558 L206.502,528.559 C206.579,528.673 206.684,528.806 206.867,528.936 C207.045,529.064 207.324,529.173 207.609,529.17 C207.957,529.17 208.228,529.031 208.389,528.911 C208.701,528.667 208.789,528.478 208.891,528.302 C209.061,527.975 209.17,527.643 209.29,527.238 C209.693,525.849 210.087,523.661 210.399,521.769 C210.709,519.884 210.924,518.326 210.925,518.319 L209.742,518.156 L210.868,518.552 C210.868,518.552 212.086,515.086 213.35,511.48 C213.982,509.676 214.626,507.838 215.136,506.38 C215.646,504.918 216.018,503.851 216.119,503.548 C216.177,503.372 216.197,503.203 216.197,503.057 C216.195,502.773 216.134,502.561 216.067,502.372 C215.938,502.022 215.768,501.732 215.567,501.409 C215.215,500.851 214.758,500.22 214.259,499.486 C213.512,498.39 212.678,497.075 212.038,495.605 C211.398,494.135 210.954,492.521 210.955,490.811 C210.955,490.63 210.96,490.448 210.97,490.265 C210.993,489.835 211.004,489.361 211.004,488.842 C211.002,485.022 210.427,478.715 209.856,471.923 C209.284,465.141 208.715,457.895 208.716,452.368 C208.716,451.622 208.726,450.908 208.748,450.232 C209.121,438.705 210.779,427.819 215.205,417.124 C217.387,411.851 218.466,406.371 218.466,400.92 C218.467,394.833 217.121,388.783 214.481,383.096 C209.664,372.718 206.841,362.378 206.102,351.671 C206.057,351.013 205.487,350.517 204.829,350.562 C204.172,350.607 203.675,351.177 203.721,351.835" fill="#1A1919"/>
    <path d="M518.046,620 L518.046,436.53 L29.103,538.014 L29.103,620" fill="#E7E4D3"/>
    <path d="M162.95,547.931 C162.95,547.931 160.994,553.8 164.906,559.669 C168.818,565.539 288.145,603.683 288.145,603.683 C288.145,603.683 292.402,607.775 306.727,603.683 C324.986,598.464 480.822,547.931 480.822,547.931 C480.822,547.931 489.625,544.019 486.692,526.413" fill="#B4B5B4"/>
    <path d="M161.817,547.553 C161.79,547.638 161.268,549.22 161.267,551.598 C161.265,553.971 161.8,557.163 163.913,560.331 C164.19,560.733 164.51,560.988 164.908,561.281 C165.676,561.83 166.767,562.425 168.199,563.121 C173.547,565.71 183.635,569.579 195.836,573.968 C232.412,587.121 287.774,604.817 287.781,604.82 L288.145,603.683 L287.317,604.543 C287.521,604.754 289.776,606.706 295.543,606.695 C298.427,606.695 302.193,606.219 307.054,604.83 C311.66,603.514 324.81,599.38 341.995,593.907 C393.532,577.491 481.189,549.066 481.19,549.066 L481.307,549.021 C481.444,548.961 483.248,548.127 485.019,545.71 C486.793,543.296 488.489,539.314 488.484,533.145 C488.484,531.089 488.298,528.789 487.87,526.217 C487.762,525.567 487.147,525.127 486.496,525.236 C485.846,525.344 485.407,525.959 485.515,526.609 C485.924,529.064 486.097,531.233 486.097,533.145 C486.092,538.887 484.554,542.298 483.093,544.299 C482.361,545.299 481.639,545.948 481.116,546.341 C480.854,546.538 480.642,546.67 480.504,546.749 L480.356,546.83 L480.329,546.843 L480.483,547.167 L480.337,546.84 L480.329,546.843 L480.483,547.167 L480.337,546.84 L480.822,547.931 L480.454,546.795 C480.452,546.796 479.845,546.992 478.7,547.364 C470.106,550.149 431.301,562.722 392.505,575.209 C373.108,581.453 353.712,587.675 338.098,592.642 C322.488,597.608 310.64,601.323 306.399,602.535 C301.711,603.874 298.164,604.308 295.543,604.308 C292.921,604.307 291.226,603.876 290.214,603.48 C289.708,603.282 289.372,603.092 289.175,602.965 C289.076,602.901 289.013,602.853 288.98,602.827 L288.954,602.805 L288.603,603.206 L288.972,602.822 L288.954,602.805 L288.603,603.206 L288.972,602.822 C288.841,602.696 288.681,602.601 288.508,602.546 C288.507,602.545 288.043,602.397 287.168,602.116 C280.61,600.011 251.057,590.492 222.694,580.815 C208.514,575.977 194.629,571.098 184.078,567.092 C178.804,565.09 174.36,563.304 171.148,561.86 C169.543,561.139 168.244,560.502 167.323,559.98 C166.863,559.72 166.498,559.488 166.248,559.304 C166.124,559.213 166.029,559.134 165.969,559.077 L165.906,559.014 L165.896,559.001 L165.822,559.059 L165.9,559.007 L165.896,559.001 L165.822,559.059 L165.9,559.007 C164.1,556.305 163.656,553.627 163.654,551.598 C163.654,550.586 163.767,549.743 163.878,549.163 C163.933,548.872 163.988,548.648 164.027,548.502 L164.072,548.342 L164.082,548.309 L164.082,548.308 C164.291,547.683 163.953,547.007 163.327,546.798 C162.702,546.59 162.026,546.928 161.817,547.553" fill="#1A1919"/>
    <path d="M294.012,595.855 L165.883,552.821 C165.883,552.821 158.058,547.929 170.774,542.061 C183.49,536.194 332.157,501.961 332.157,501.961 L356.608,532.282 C356.608,532.282 307.704,600.744 294.012,595.855" fill="#E4E4E3"/>
    <path d="M294.012,595.855 L294.392,594.724 L166.263,551.69 L165.883,552.821 L166.516,551.809 L166.266,552.209 L166.521,551.812 L166.516,551.809 L166.266,552.209 L166.521,551.812 C166.51,551.807 165.997,551.469 165.535,550.938 C165.304,550.673 165.086,550.364 164.935,550.038 C164.783,549.711 164.695,549.374 164.695,549.011 C164.701,548.412 164.917,547.656 165.869,546.634 C166.818,545.623 168.512,544.417 171.274,543.145 C171.975,542.821 173.282,542.345 175.046,541.781 C181.684,539.652 194.882,536.157 210.889,532.131 C234.908,526.09 265.295,518.837 289.674,513.096 C301.863,510.225 312.552,507.732 320.192,505.957 C324.012,505.069 327.071,504.361 329.174,503.875 C331.277,503.388 332.422,503.125 332.425,503.124 L332.157,501.961 L331.228,502.71 L355.679,533.031 L356.608,532.282 L355.637,531.588 C355.637,531.589 355.461,531.834 355.125,532.3 C352.603,535.791 341.104,551.551 328.451,566.408 C322.127,573.834 315.51,581.036 309.616,586.344 C306.671,588.997 303.906,591.176 301.482,592.664 C299.063,594.162 296.976,594.926 295.55,594.912 C295.114,594.911 294.741,594.848 294.413,594.731 L294.392,594.724 L294.012,595.855 L293.61,596.98 C294.227,597.2 294.881,597.299 295.55,597.299 C297.895,597.282 300.432,596.163 303.258,594.368 C308.186,591.209 313.977,585.82 319.971,579.485 C337.927,560.494 357.562,532.997 357.58,532.976 C357.892,532.539 357.875,531.951 357.538,531.533 L333.086,501.212 C332.8,500.856 332.334,500.695 331.889,500.798 C331.887,500.798 294.718,509.357 255.956,518.65 C236.574,523.297 216.795,528.127 201.058,532.164 C193.189,534.183 186.332,536.003 181.034,537.505 C178.384,538.257 176.125,538.928 174.317,539.508 C172.506,540.089 171.163,540.569 170.274,540.978 C167.336,542.335 165.394,543.662 164.131,544.997 C162.872,546.321 162.301,547.725 162.308,549.011 C162.307,549.798 162.511,550.507 162.797,551.101 C163.228,551.996 163.831,552.654 164.323,553.107 C164.816,553.559 165.206,553.805 165.25,553.833 C165.335,553.886 165.409,553.921 165.503,553.953 L293.632,596.987 L294.012,595.855 L293.61,596.98 L294.012,595.855" fill="#1A1919"/>
    <path d="M517.803,435.36 L28.861,536.844 L29.346,539.183 L518.289,437.7" fill="#1A1919"/>
    <path d="M239.56,449.93 C239.56,449.93 234.956,477.561 218.069,475.644 C201.183,473.726 229.965,438.798 239.56,449.93" fill="#F5CCD8"/>
    <path d="M239.56,449.93 L238.382,449.733 L238.371,449.796 C238.251,450.492 237.065,456.849 234.106,462.916 C232.631,465.95 230.714,468.901 228.334,471.044 C225.946,473.19 223.158,474.539 219.727,474.545 C219.234,474.545 218.726,474.517 218.203,474.457 C216.54,474.266 215.546,473.75 214.952,473.116 C214.652,472.794 214.437,472.429 214.287,471.993 C214.138,471.557 214.058,471.048 214.058,470.468 C214.049,468.761 214.783,466.467 216.091,464.068 C218.044,460.461 221.238,456.607 224.701,453.713 C226.432,452.265 228.229,451.055 229.949,450.221 C231.67,449.385 233.309,448.935 234.705,448.938 C235.499,448.939 236.213,449.077 236.863,449.36 C237.512,449.644 238.105,450.072 238.655,450.709 L239.56,449.93 L238.382,449.733 L239.56,449.93 L240.464,449.15 C239.7,448.262 238.8,447.598 237.817,447.171 C236.834,446.742 235.779,446.55 234.705,446.551 C232.176,446.559 229.545,447.573 226.967,449.136 C223.105,451.491 219.346,455.137 216.497,459.01 C215.075,460.948 213.882,462.944 213.034,464.883 C212.188,466.824 211.674,468.708 211.671,470.468 C211.671,471.265 211.779,472.039 212.028,472.766 C212.397,473.857 213.107,474.834 214.118,475.529 C215.129,476.228 216.406,476.656 217.934,476.83 C218.544,476.899 219.142,476.933 219.727,476.933 C223.952,476.939 227.455,475.15 230.194,472.578 C234.312,468.713 236.892,463.118 238.507,458.487 C240.115,453.854 240.729,450.17 240.737,450.126 C240.795,449.777 240.695,449.419 240.464,449.15 L239.56,449.93" fill="#1A1919"/>
    <path d="M249.451,443.608 C249.451,443.608 321.745,478.043 342.352,475.797 C334.107,491.532 332.079,516.306 332.079,516.306 C332.079,516.306 323.962,503.326 311.903,499.394 C280.423,489.128 225.277,470.341 214.985,463.569 C223.985,445.569 243.457,442.859 249.451,443.608" fill="#F9D8BE"/>
    <path d="M249.451,443.608 L248.937,444.686 C248.95,444.692 265.914,452.772 285.775,460.861 C295.707,464.905 306.361,468.952 316,471.994 C320.819,473.516 325.385,474.787 329.49,475.681 C333.596,476.574 337.236,477.094 340.248,477.096 C341.035,477.096 341.779,477.06 342.481,476.983 L342.352,475.797 L341.294,475.243 C337.078,483.3 334.504,493.507 332.951,501.731 C331.402,509.952 330.892,516.18 330.889,516.208 L332.079,516.306 L333.091,515.673 C333.062,515.628 330.996,512.325 327.38,508.504 C323.761,504.687 318.596,500.328 312.273,498.259 C296.542,493.129 274.892,485.868 255.902,479.048 C246.407,475.638 237.577,472.338 230.491,469.473 C226.949,468.041 223.843,466.718 221.315,465.548 C218.789,464.381 216.833,463.358 215.641,462.572 L214.985,463.569 L216.053,464.103 C220.002,456.21 226.002,451.381 231.969,448.489 C237.927,445.6 243.863,444.689 247.439,444.692 C248.173,444.692 248.805,444.73 249.303,444.793 L249.451,443.608 L248.937,444.686 L249.451,443.608 L249.599,442.424 C248.977,442.346 248.255,442.305 247.439,442.305 C243.488,442.309 237.277,443.273 230.929,446.34 C224.591,449.403 218.128,454.609 213.918,463.035 C213.647,463.577 213.824,464.234 214.329,464.566 C215.711,465.474 217.729,466.519 220.312,467.715 C229.336,471.888 245.225,477.831 262.337,483.872 C279.444,489.91 297.753,496.035 311.533,500.528 C317.269,502.392 322.192,506.489 325.646,510.145 C327.374,511.971 328.738,513.68 329.664,514.928 C330.127,515.552 330.482,516.06 330.718,516.409 C330.837,516.584 330.926,516.719 330.984,516.809 L331.049,516.91 L331.067,516.939 C331.34,517.376 331.86,517.587 332.361,517.465 C332.862,517.344 333.227,516.917 333.269,516.403 C333.269,516.403 333.276,516.313 333.293,516.132 C333.416,514.771 334.043,508.438 335.595,500.633 C337.144,492.83 339.634,483.548 343.409,476.351 C343.614,475.959 343.587,475.489 343.338,475.124 C343.089,474.759 342.661,474.562 342.222,474.61 C341.622,474.676 340.962,474.708 340.248,474.708 C337.511,474.71 334.001,474.221 329.998,473.348 C315.966,470.296 295.907,462.585 279.416,455.643 C271.167,452.172 263.801,448.893 258.499,446.482 C255.848,445.276 253.713,444.288 252.241,443.601 C251.505,443.258 250.935,442.99 250.55,442.808 C250.164,442.626 249.965,442.531 249.964,442.531 C249.853,442.478 249.72,442.439 249.599,442.424 L249.451,443.608" fill="#1A1919"/>
    <path d="M249.685,161.178 C249.685,161.178 260.14,263.869 195.582,291.461 C194.803,286.425 207.572,255.335 202.778,226.363 C197.985,197.393 249.685,161.178 249.685,161.178" fill="#7D573B"/>
    <path d="M249.685,161.178 L248.496,161.299 C248.496,161.299 248.505,161.387 248.522,161.57 C248.639,162.85 249.116,168.581 249.116,177.014 C249.118,191.892 247.625,215.185 240.102,237.255 C236.342,248.291 231.079,259.018 223.769,268.252 C216.456,277.487 207.107,285.235 195.112,290.363 L195.582,291.461 L196.762,291.279 C196.751,291.209 196.742,291.093 196.742,290.943 C196.739,290.428 196.855,289.546 197.077,288.428 C197.85,284.486 199.848,277.582 201.646,269.126 C203.445,260.661 205.052,250.608 205.053,240.213 C205.053,235.563 204.731,230.844 203.957,226.168 C203.756,224.952 203.659,223.72 203.659,222.474 C203.653,215.758 206.494,208.583 210.855,201.626 C217.388,191.187 227.281,181.285 235.533,174.029 C239.659,170.399 243.375,167.426 246.056,165.364 C247.396,164.332 248.478,163.528 249.223,162.983 C249.596,162.711 249.884,162.503 250.079,162.364 C250.273,162.225 250.37,162.157 250.371,162.157 L249.685,161.178 L248.496,161.299 L249.685,161.178 L249,160.2 C248.966,160.224 237.119,168.521 225.23,180.399 C219.286,186.34 213.329,193.176 208.83,200.357 C204.338,207.538 201.276,215.08 201.27,222.474 C201.27,223.843 201.376,225.207 201.6,226.558 C202.348,231.084 202.663,235.673 202.663,240.213 C202.664,251.812 200.606,263.081 198.538,272.119 C197.504,276.64 196.468,280.602 195.685,283.787 C195.294,285.38 194.966,286.778 194.732,287.967 C194.499,289.159 194.355,290.127 194.352,290.943 C194.353,291.184 194.366,291.414 194.401,291.644 C194.458,292.011 194.677,292.326 195.002,292.506 C195.326,292.686 195.71,292.706 196.051,292.56 C208.438,287.267 218.122,279.238 225.642,269.735 C236.926,255.476 243.372,237.922 247.019,221.131 C250.664,204.337 251.505,188.293 251.506,177.014 C251.505,167.273 250.877,161.089 250.874,161.057 C250.831,160.636 250.567,160.268 250.182,160.092 C249.798,159.916 249.346,159.957 249,160.2 L249.685,161.178" fill="#1A1919"/>
    <path d="M80.935,219.638 C80.935,219.638 54.548,234.964 92.52,286.608 C92.52,286.608 95.045,262.469 104.241,241.046 C113.436,219.624 80.935,219.638 80.935,219.638" fill="#7D573B"/>
    <path d="M80.935,219.638 L80.334,218.605 C80.232,218.666 77.864,220.058 75.502,223.345 C73.14,226.628 70.811,231.822 70.816,239.317 C70.821,250.11 75.581,265.584 91.557,287.316 C91.85,287.714 92.356,287.891 92.833,287.761 C93.31,287.632 93.657,287.224 93.708,286.733 C93.708,286.732 93.717,286.646 93.738,286.467 C94.038,283.797 96.8,261.395 105.339,241.518 C106.527,238.748 107.074,236.263 107.074,234.029 C107.075,232.059 106.643,230.291 105.882,228.753 C104.545,226.053 102.251,224.096 99.657,222.664 C95.757,220.517 91.119,219.491 87.428,218.966 C83.739,218.445 80.997,218.444 80.935,218.443 C80.726,218.443 80.515,218.5 80.334,218.605 L80.935,219.638 L80.935,220.833 C80.936,220.833 81.31,220.833 81.978,220.86 C84.314,220.953 90.192,221.404 95.34,223.324 C97.916,224.278 100.291,225.597 101.971,227.336 C103.649,229.084 104.675,231.19 104.685,234.029 C104.685,235.869 104.233,238.035 103.143,240.575 C93.861,262.217 91.343,286.423 91.332,286.484 L92.52,286.608 L93.483,285.901 C77.68,264.412 73.2,249.383 73.205,239.317 C73.21,232.316 75.343,227.671 77.443,224.738 C78.494,223.274 79.541,222.243 80.315,221.584 C80.701,221.255 81.019,221.019 81.234,220.869 C81.342,220.795 81.423,220.741 81.475,220.709 L81.529,220.675 L81.538,220.669 L81.327,220.314 L81.535,220.671 L81.538,220.669 L81.327,220.314 L81.535,220.671 L80.935,219.638 L80.935,220.833 L80.935,219.638" fill="#1A1919"/>
    <path d="M209.536,227.55 C209.536,227.55 233.329,246.653 188.048,292.027 C188.048,292.027 189.168,267.783 183.287,245.22 C177.404,222.669 209.536,227.55 209.536,227.55" fill="#7D573B"/>
    <path d="M209.536,227.55 L208.788,228.482 L209.103,228.089 L208.784,228.479 L208.788,228.482 L209.103,228.089 L208.784,228.479 C208.797,228.489 210.257,229.687 211.701,232.16 C213.146,234.636 214.586,238.375 214.588,243.562 C214.587,248.576 213.236,254.965 209.134,262.872 C205.033,270.776 198.177,280.186 187.202,291.183 L188.048,292.027 L189.241,292.082 C189.242,292.067 189.328,290.204 189.328,287.037 C189.326,278.721 188.743,261.428 184.443,244.919 C183.971,243.11 183.762,241.512 183.762,240.106 C183.767,237.53 184.445,235.605 185.553,234.067 C187.209,231.767 189.965,230.296 193.118,229.427 C196.261,228.557 199.745,228.298 202.672,228.299 C204.592,228.299 206.274,228.409 207.47,228.517 C208.068,228.572 208.544,228.626 208.869,228.666 C209.031,228.686 209.155,228.703 209.238,228.715 L209.356,228.731 L209.536,227.55 L208.788,228.482 L209.536,227.55 L209.715,226.369 C209.675,226.363 206.692,225.91 202.672,225.91 C198.584,225.916 193.427,226.362 189.124,228.335 C186.975,229.324 185.028,230.716 183.617,232.666 C182.203,234.612 181.368,237.102 181.372,240.106 C181.373,241.749 181.616,243.548 182.131,245.522 C186.348,261.691 186.941,278.839 186.938,287.037 C186.938,288.599 186.917,289.837 186.896,290.682 C186.886,291.105 186.875,291.429 186.867,291.647 C186.859,291.865 186.854,291.972 186.854,291.972 C186.832,292.466 187.114,292.921 187.566,293.121 C188.018,293.32 188.544,293.221 188.894,292.871 C199.997,281.744 207.009,272.154 211.255,263.972 C215.501,255.793 216.979,249.011 216.978,243.562 C216.98,237.836 215.343,233.605 213.686,230.822 C212.03,228.036 210.366,226.685 210.284,226.619 C210.121,226.488 209.921,226.4 209.715,226.369 L209.536,227.55" fill="#1A1919"/>
    <path d="M62.58,197.363 C62.58,197.363 63.13,258.686 70.218,278.483 C71.694,265.652 74.008,256.817 84.702,243.372 C81.215,234.347 62.58,197.363 62.58,197.363" fill="#7D573B"/>
    <g>
      <path d="M62.58,197.363 L61.385,197.373 C61.385,197.385 61.523,212.73 62.548,230.568 C63.061,239.487 63.795,249.029 64.849,257.602 C65.905,266.18 67.264,273.765 69.093,278.886 C69.28,279.409 69.803,279.733 70.354,279.67 C70.906,279.606 71.341,279.171 71.405,278.619 C72.139,272.24 73.072,266.942 75.119,261.585 C77.168,256.228 80.342,250.774 85.637,244.116 C85.9,243.785 85.969,243.336 85.816,242.941 C84.917,240.618 83.098,236.615 80.855,231.865 C74.131,217.633 63.649,196.83 63.647,196.825 C63.397,196.329 62.838,196.071 62.298,196.202 C61.758,196.333 61.38,196.818 61.385,197.373 L62.58,197.363 L61.513,197.9 C61.513,197.902 61.803,198.477 62.319,199.505 C64.126,203.104 68.69,212.228 73.182,221.434 C75.428,226.037 77.656,230.661 79.511,234.622 C81.364,238.58 82.849,241.889 83.587,243.803 L84.702,243.372 L83.767,242.628 C78.368,249.415 75.038,255.102 72.887,260.731 C70.735,266.361 69.773,271.895 69.031,278.346 L70.218,278.483 L71.343,278.08 C69.628,273.302 68.26,265.798 67.22,257.31 C65.655,244.569 64.791,229.567 64.321,217.762 C64.087,211.859 63.95,206.755 63.872,203.127 C63.833,201.313 63.808,199.868 63.794,198.877 C63.779,197.887 63.774,197.354 63.774,197.352 L62.58,197.363 L61.513,197.9 L62.58,197.363" fill="#1A1919"/>
      <path d="M228.96,70.665 C228.96,70.665 255.449,135.999 248.384,163.374 C241.321,190.745 238.673,210.168 238.673,220.765 C238.673,231.36 228.078,255.196 209.536,265.791 C190.994,276.389 167.119,290.541 142.398,282.594 C117.677,274.647 72.429,251.157 66.248,229.964 C60.067,208.774 52.373,181.916 53.256,158.076 C54.139,134.238 166.271,-24.691 228.96,70.665" fill="#F9D8BE"/>
    </g>
    <path d="M228.96,70.665 L227.853,71.113 C227.853,71.114 227.931,71.307 228.081,71.685 C229.206,74.514 234.294,87.541 239.093,103.438 C243.895,119.325 248.395,138.116 248.387,152.303 C248.388,156.336 248.025,159.99 247.227,163.076 C240.149,190.516 237.482,209.986 237.478,220.765 C237.481,223.219 236.85,226.604 235.593,230.406 C233.711,236.116 230.438,242.788 225.937,248.98 C221.436,255.176 215.708,260.89 208.943,264.754 C201.558,268.976 193.373,273.73 184.677,277.418 C175.98,281.107 166.784,283.723 157.38,283.722 C152.559,283.721 147.682,283.037 142.764,281.457 C130.521,277.524 113.078,269.688 98.005,260.234 C90.467,255.509 83.519,250.376 78.107,245.151 C72.69,239.93 68.838,234.609 67.395,229.63 C61.541,209.578 54.375,184.512 54.381,161.903 C54.381,160.634 54.404,159.372 54.45,158.12 C54.484,157.137 54.76,155.749 55.286,154.075 C57.252,147.766 62.655,137.456 70.495,125.685 C82.257,108.009 99.518,86.94 118.985,70.343 C128.717,62.043 138.999,54.862 149.4,49.77 C159.803,44.675 170.315,41.675 180.522,41.676 C189.048,41.679 197.368,43.756 205.337,48.486 C213.303,53.217 220.926,60.62 227.962,71.321 L228.96,70.665 L227.853,71.113 L228.96,70.665 L229.958,70.008 C222.768,59.07 214.893,51.382 206.557,46.431 C198.223,41.479 189.437,39.284 180.522,39.287 C165.33,39.293 149.796,45.605 135.014,55.264 C112.841,69.763 92.306,91.843 77.201,112.055 C69.65,122.162 63.461,131.8 59.113,139.81 C56.939,143.816 55.224,147.414 54.027,150.477 C52.833,153.547 52.142,156.056 52.062,158.031 C52.015,159.315 51.992,160.606 51.992,161.903 C51.998,185.002 59.25,210.223 65.101,230.299 C66.748,235.916 70.87,241.478 76.448,246.87 C84.822,254.95 96.538,262.641 108.503,269.089 C120.469,275.534 132.672,280.722 142.033,283.732 C147.198,285.392 152.333,286.111 157.38,286.111 C167.231,286.11 176.733,283.381 185.61,279.617 C194.487,275.852 202.752,271.044 210.128,266.829 C219.649,261.383 227.044,252.618 232.092,243.875 C234.616,239.501 236.551,235.129 237.862,231.155 C239.172,227.177 239.864,223.609 239.868,220.765 C239.864,210.35 242.492,190.973 249.541,163.673 C250.406,160.317 250.776,156.478 250.777,152.303 C250.775,144.478 249.472,135.464 247.529,126.316 C241.696,98.887 230.079,70.25 230.067,70.216 L229.958,70.008 L228.96,70.665" fill="#1A1919"/>
    <path d="M176.308,121.924 C178.003,123.714 176.353,124.593 174.422,124.561 C173.427,124.544 170.899,123.515 170.02,122.993 C167.112,121.27 160.432,118.71 149.818,118.77 C137.378,118.84 120.223,125.539 118.907,125.887 C118.907,125.887 120.759,121.88 125.313,120.154 C129.86,118.422 143.684,113.37 157.112,115.187 C167.896,116.644 174.188,119.684 176.308,121.924" fill="#66462B"/>
    <path d="M176.308,121.924 L175.441,122.746 C175.63,122.945 175.737,123.105 175.784,123.197 L175.819,123.282 L175.82,123.284 L175.981,123.261 L175.819,123.261 L175.82,123.284 L175.981,123.261 L175.819,123.261 L176.099,123.261 L175.877,123.084 L175.819,123.261 L176.099,123.261 L175.877,123.084 L175.876,123.084 C175.849,123.111 175.692,123.203 175.446,123.264 C175.2,123.327 174.875,123.367 174.526,123.367 L174.441,123.366 C174.382,123.369 174.09,123.325 173.753,123.23 C173.239,123.09 172.582,122.853 171.992,122.61 C171.406,122.369 170.865,122.107 170.629,121.965 C169.074,121.045 166.621,119.955 163.221,119.085 C159.823,118.217 155.483,117.575 150.187,117.575 C150.062,117.575 149.937,117.575 149.811,117.576 C143.387,117.616 135.925,119.337 129.861,121.076 C126.831,121.947 124.156,122.825 122.157,123.507 C121.157,123.848 120.326,124.14 119.708,124.356 C119.399,124.465 119.144,124.554 118.95,124.619 C118.761,124.684 118.618,124.729 118.601,124.732 L118.907,125.887 L119.991,126.388 L119.848,126.322 L119.99,126.39 L119.991,126.388 L119.848,126.322 L119.99,126.39 C120.013,126.341 120.463,125.418 121.403,124.336 C122.344,123.252 123.762,122.019 125.736,121.272 L125.738,121.271 C129.564,119.809 140.043,115.988 151.127,115.994 C153.062,115.994 155.014,116.109 156.952,116.371 C162.265,117.088 166.449,118.195 169.531,119.377 C172.61,120.55 174.598,121.841 175.44,122.745 L177.176,121.103 C175.898,119.767 173.68,118.418 170.387,117.146 C167.097,115.885 162.743,114.743 157.272,114.003 C155.216,113.725 153.157,113.604 151.127,113.604 C139.513,113.609 128.804,117.551 124.888,119.038 L124.89,119.037 C122.373,119.991 120.616,121.568 119.491,122.895 C118.364,124.225 117.855,125.316 117.822,125.386 C117.627,125.808 117.693,126.299 117.992,126.655 C118.29,127.011 118.763,127.161 119.212,127.042 C119.36,127.002 119.506,126.954 119.718,126.882 C120.494,126.618 122.03,126.064 124.108,125.371 C127.219,124.332 131.523,122.987 136.118,121.901 C140.71,120.813 145.598,119.987 149.825,119.965 C149.946,119.964 150.067,119.964 150.187,119.964 C155.29,119.964 159.43,120.583 162.63,121.4 C165.828,122.216 168.092,123.238 169.41,124.021 C169.695,124.189 170.043,124.361 170.446,124.544 C171.049,124.817 171.762,125.102 172.448,125.329 C172.791,125.443 173.127,125.542 173.448,125.618 C173.772,125.692 174.071,125.748 174.403,125.755 L174.526,125.756 C175.32,125.752 176.082,125.64 176.779,125.316 C177.125,125.15 177.465,124.923 177.745,124.576 C178.025,124.234 178.214,123.748 178.208,123.261 C178.208,122.848 178.09,122.457 177.91,122.106 C177.727,121.752 177.482,121.427 177.176,121.103 L176.308,121.924" fill="#1A1919"/>
    <path d="M228.137,128.018 C232.401,129.105 239.538,132.315 242.339,135.573 C245.133,138.82 245.482,138.708 246.036,138.984 C246.581,139.269 247.439,138.659 246.583,136.744 C245.736,134.824 243.041,130.427 238.255,127.566 C233.473,124.704 223.567,123.116 219.26,123.742 C214.94,124.368 209.877,126.728 210.178,127.216 C210.479,127.705 215.213,126.455 217.722,126.416 C220.521,126.369 224.762,127.158 228.137,128.018" fill="#66462B"/>
    <path d="M228.137,128.018 L227.842,129.176 C229.861,129.689 232.661,130.741 235.249,132.048 C237.837,133.346 240.233,134.94 241.433,136.352 L241.433,136.353 C242.853,138 243.664,138.82 244.273,139.319 C244.575,139.566 244.843,139.738 245.072,139.855 C245.304,139.972 245.446,140.023 245.502,140.054 L246.036,138.984 L245.482,140.043 C245.732,140.174 246.013,140.246 246.302,140.245 C246.811,140.252 247.343,140 247.672,139.585 C248.007,139.171 248.141,138.655 248.14,138.142 C248.138,137.559 247.981,136.948 247.673,136.256 L247.676,136.262 C247.201,135.189 246.273,133.542 244.824,131.755 C243.375,129.972 241.408,128.06 238.869,126.54 C236.635,125.21 233.577,124.21 230.419,123.503 C227.263,122.802 224.029,122.413 221.469,122.411 C220.593,122.412 219.795,122.457 219.088,122.559 C216.851,122.886 214.515,123.623 212.69,124.361 C211.776,124.732 210.997,125.1 210.402,125.441 C210.102,125.613 209.852,125.773 209.622,125.962 C209.507,126.059 209.395,126.159 209.273,126.316 C209.212,126.396 209.148,126.491 209.088,126.625 C209.029,126.758 208.971,126.937 208.97,127.17 C208.967,127.384 209.034,127.643 209.162,127.845 L209.161,127.843 C209.315,128.092 209.514,128.235 209.669,128.319 C209.906,128.443 210.078,128.472 210.23,128.497 C210.381,128.518 210.515,128.524 210.651,128.524 C211.106,128.522 211.605,128.458 212.19,128.373 C213.061,128.244 214.092,128.056 215.094,127.9 C216.091,127.743 217.066,127.62 217.74,127.611 L217.742,127.611 L217.964,127.609 C220.559,127.603 224.631,128.353 227.842,129.176 L228.432,126.86 C225.084,126.011 220.962,125.225 217.964,125.219 L217.702,125.221 L217.703,125.221 C216.508,125.243 215.049,125.482 213.695,125.706 C213.022,125.819 212.38,125.929 211.84,126.009 C211.305,126.09 210.853,126.136 210.651,126.134 L210.575,126.132 L210.571,126.132 L210.496,126.713 L210.718,126.175 C210.613,126.134 210.576,126.134 210.571,126.132 L210.496,126.713 L210.718,126.175 L210.328,127.123 L211.195,126.589 C211.019,126.312 210.814,126.216 210.718,126.175 L210.328,127.123 L211.195,126.589 L211.193,126.587 L210.252,127.17 L211.36,127.17 C211.363,126.989 211.304,126.76 211.193,126.587 L210.252,127.17 L211.36,127.17 L210.311,127.17 L211.271,127.597 C211.31,127.506 211.359,127.366 211.36,127.17 L210.311,127.17 L211.271,127.597 L210.62,127.307 L211.13,127.816 C211.137,127.804 211.188,127.771 211.271,127.597 L210.62,127.307 L211.13,127.816 L211.118,127.805 L211.129,127.817 L211.13,127.816 L211.118,127.805 L211.129,127.817 C211.144,127.801 211.259,127.712 211.428,127.61 C212.034,127.235 213.291,126.651 214.749,126.135 C216.211,125.614 217.899,125.145 219.432,124.924 C219.982,124.844 220.679,124.801 221.469,124.801 C223.789,124.799 226.905,125.168 229.9,125.836 C232.895,126.498 235.791,127.477 237.642,128.591 C239.888,129.933 241.661,131.65 242.969,133.261 C244.275,134.867 245.118,136.379 245.489,137.226 L245.492,137.232 C245.706,137.706 245.753,138.02 245.751,138.142 L245.748,138.197 L245.746,138.203 L245.949,138.246 L245.769,138.149 L245.746,138.203 L245.949,138.246 L245.769,138.149 L246.242,138.404 L245.964,137.951 C245.864,138.011 245.797,138.095 245.769,138.149 L246.242,138.404 L245.964,137.951 L246.302,138.501 L246.302,137.856 C246.187,137.855 246.062,137.89 245.964,137.951 L246.302,138.501 L246.302,137.856 L246.302,138.475 L246.589,137.925 C246.507,137.882 246.408,137.856 246.302,137.856 L246.302,138.475 L246.589,137.925 L246.569,137.915 C246.349,137.808 246.239,137.77 246.163,137.728 C246.051,137.67 245.866,137.564 245.41,137.137 C244.96,136.714 244.276,135.993 243.244,134.794 L243.245,134.794 C241.644,132.948 239.071,131.309 236.325,129.915 C233.578,128.531 230.677,127.435 228.432,126.86 L228.137,128.018" fill="#1A1919"/>
    <path d="M156.432,147.975 C157.992,149.058 162.053,153.742 162.16,155.578 C162.27,157.412 159.836,186.763 142.99,184.836 C123.532,182.612 125.099,157.273 127.033,153.373 C128.97,149.47 143.567,145.999 147.823,145.999 C152.083,145.995 156.432,147.975 156.432,147.975" fill="#FFFFFE"/>
    <path d="M126.31,163.711 C124.831,159.263 124.647,156.594 125.327,155.224 C127.261,151.323 142.07,147.806 146.329,147.801 C150.588,147.798 154.936,149.788 154.936,149.788 C156.493,150.864 160.556,155.555 160.666,157.387 C160.696,157.943 160.698,159.022 160.113,162.359 C157,156.914 152.487,154.228 147.985,153.542 C141.043,152.476 132.442,156.406 126.31,163.711" fill="#B4B5B4"/>
    <path d="M141.942,161.538 C142.979,161.343 144.014,161.199 145.035,161.162 C148.367,161.45 152.763,163.75 153.626,169.211 C154.618,175.472 151.879,182.434 145.772,183.799 C140.625,184.948 134.708,181.875 134.473,174.162 C134.22,165.8 138.797,162.549 141.942,161.538" fill="#66462B"/>
    <path d="M141.942,161.538 L142.162,162.712 C143.163,162.524 144.14,162.39 145.079,162.356 L145.035,161.162 L144.932,162.352 C146.376,162.474 148.103,163.053 149.512,164.181 C150.923,165.315 152.054,166.955 152.446,169.398 C152.569,170.173 152.63,170.961 152.63,171.747 C152.632,174.292 151.982,176.804 150.767,178.758 C149.545,180.716 147.813,182.114 145.512,182.633 C144.902,182.769 144.279,182.838 143.659,182.838 C141.672,182.837 139.734,182.139 138.27,180.736 C136.81,179.33 135.767,177.204 135.667,174.126 C135.66,173.915 135.657,173.708 135.657,173.505 C135.663,169.787 136.683,167.344 137.992,165.677 C139.304,164.014 140.961,163.108 142.307,162.675 L141.942,161.538 L142.162,162.712 L141.942,161.538 L141.576,160.401 C139.862,160.952 137.78,162.092 136.117,164.196 C134.452,166.298 133.262,169.346 133.268,173.505 C133.268,173.732 133.271,173.964 133.278,174.198 C133.382,177.791 134.667,180.6 136.617,182.461 C138.563,184.326 141.117,185.228 143.659,185.227 C144.455,185.227 145.252,185.14 146.033,184.965 C149.022,184.302 151.316,182.418 152.798,180.017 C154.286,177.612 155.018,174.69 155.02,171.747 C155.02,170.837 154.949,169.925 154.807,169.024 C154.336,166.006 152.837,163.766 151.001,162.312 C149.164,160.853 147.026,160.137 145.138,159.972 L144.992,159.968 C143.887,160.008 142.796,160.162 141.721,160.364 L141.576,160.401 L141.942,161.538" fill="#1A1919"/>
    <path d="M145.291,166.878 C147.703,167.138 149.405,169.761 149.086,172.748 C148.769,175.723 146.554,177.937 144.143,177.68 C141.728,177.425 140.025,174.795 140.344,171.815 C140.659,168.831 142.876,166.623 145.291,166.878" fill="#1A1919"/>
    <path d="M156.323,167.968 C156.306,166.779 156.126,165.54 155.838,164.272 C154.45,163.391 151.892,163.697 149.513,165.171 C146.66,166.952 145.175,169.721 146.193,171.363 C147.215,173.005 150.356,172.891 153.209,171.115 C154.638,170.225 155.725,169.088 156.323,167.968" fill="#FFFFFE"/>
    <path d="M161.523,158.428 C161.523,158.428 157.684,150.722 147.71,149.869 C135.504,148.826 125.71,155.826 120.894,158.579 C120.894,158.579 123.359,155.835 125.521,154.275 C128.918,151.819 135.967,145.421 147.675,146.416 C159.382,147.411 161.953,155.404 162.485,157.475 C163.021,159.539 162.083,159.212 161.523,158.428" fill="#1A1919"/>
    <path d="M161.523,158.428 L162.592,157.895 C162.547,157.808 161.522,155.763 159.166,153.59 C156.817,151.419 153.097,149.127 147.812,148.679 C146.942,148.604 146.084,148.569 145.239,148.569 C139.485,148.57 134.353,150.194 130.11,152.122 C125.872,154.049 122.486,156.296 120.301,157.542 L120.894,158.579 L121.783,159.378 L121.885,159.266 C122.124,159.004 122.767,158.314 123.574,157.53 C124.379,156.747 125.355,155.867 126.221,155.244 L126.221,155.243 C127.859,154.055 130.14,152.139 133.272,150.496 C136.401,148.859 140.337,147.509 145.245,147.507 C145.998,147.507 146.774,147.539 147.574,147.607 C153.166,148.092 156.397,150.179 158.388,152.347 C160.373,154.522 161.087,156.834 161.328,157.772 L161.329,157.776 C161.426,158.144 161.452,158.391 161.45,158.475 L161.449,158.503 L161.792,158.535 L161.468,158.427 L161.449,158.503 L161.792,158.535 L161.468,158.427 L162.261,158.691 L161.745,158.045 C161.568,158.187 161.493,158.35 161.468,158.427 L162.261,158.691 L161.745,158.045 L162.329,158.776 L162.329,157.838 C162.168,157.833 161.919,157.901 161.745,158.045 L162.329,158.776 L162.329,157.838 L162.329,158.555 L162.62,157.894 C162.577,157.876 162.489,157.84 162.329,157.838 L162.329,158.555 L162.62,157.894 L162.52,158.119 L162.661,157.915 L162.62,157.894 L162.52,158.119 L162.661,157.915 C162.654,157.913 162.564,157.833 162.495,157.733 L161.523,158.428 L162.592,157.895 L161.523,158.428 L160.551,159.123 C160.737,159.382 160.946,159.611 161.205,159.81 C161.469,159.998 161.772,160.21 162.329,160.228 C162.544,160.229 162.802,160.177 163.033,160.048 C163.387,159.856 163.611,159.525 163.71,159.252 C163.815,158.972 163.838,158.723 163.84,158.475 C163.838,158.079 163.769,157.671 163.641,157.174 L163.642,157.178 C163.35,156.045 162.513,153.325 160.153,150.737 C157.799,148.142 153.892,145.735 147.776,145.226 C146.909,145.152 146.066,145.117 145.245,145.117 C139.891,145.116 135.542,146.607 132.163,148.38 C128.788,150.149 126.338,152.213 124.821,153.307 L124.822,153.306 C123.65,154.154 122.467,155.259 121.555,156.165 C120.645,157.069 120.016,157.769 120.005,157.781 C119.612,158.218 119.595,158.872 119.964,159.329 C120.333,159.787 120.977,159.908 121.487,159.616 C123.789,158.298 127.05,156.137 131.099,154.297 C135.144,152.459 139.941,150.958 145.239,150.959 C146.017,150.959 146.807,150.991 147.608,151.06 C152.296,151.464 155.483,153.452 157.547,155.347 C158.575,156.295 159.314,157.219 159.789,157.897 C160.026,158.235 160.198,158.513 160.308,158.699 C160.362,158.793 160.402,158.864 160.426,158.909 L160.451,158.956 L160.455,158.964 L160.809,158.784 L160.454,158.961 L160.455,158.964 L160.809,158.784 L160.454,158.961 L160.551,159.123 L161.523,158.428" fill="#1A1919"/>
    <path d="M104.309,463.569 C92.322,459.448 82.982,486.388 80.296,494.448 C92.284,499.317 181.297,525.261 203.401,532.005 C227.378,538.375 251.699,521.906 251.699,521.906 L265.186,520.408 C265.186,520.408 272.304,522.654 276.05,528.649 C279.097,533.52 282.539,535.091 286.538,535.254 C287.455,535.29 291.06,534.713 290.444,532.452 C290.157,528.932 285.946,521.801 280.831,513.841 C282.236,515.373 287.36,515.668 289.712,519.325 C293.153,524.682 299.192,533.653 305.214,531.644 C310.489,529.886 301.988,516.987 301.988,516.987 C301.988,516.987 299.608,512.375 298.069,509.399 C297.286,505.743 295.203,499.345 293.288,496.365 C289.916,491.12 287.245,491.24 279.003,488.245 C273.009,483.375 270.133,479.596 267.511,478.843 C264.888,478.092 255.099,478.582 252.102,478.582 C249.104,478.582 238.782,484.328 232.775,487.461 C226.649,490.655 202.334,503.658 202.334,503.658 C202.334,503.658 184.704,498.924 171.528,493.434 C158.352,487.945 104.548,463.787 104.548,463.787" fill="#F9D8BE"/>
    <path d="M104.697,462.44 C103.735,462.109 102.769,461.949 101.821,461.95 C100.251,461.949 98.745,462.386 97.347,463.125 C94.897,464.423 92.735,466.615 90.775,469.241 C87.842,473.185 85.367,478.145 83.4,482.75 C81.436,487.353 79.987,491.6 79.163,494.071 C78.964,494.669 79.263,495.317 79.847,495.554 C81.406,496.187 84.111,497.124 87.749,498.318 C100.463,502.487 124.445,509.716 147.681,516.645 C170.913,523.573 193.395,530.2 203.053,533.147 L203.094,533.158 C207.092,534.22 211.091,534.663 214.98,534.663 C225.037,534.66 234.356,531.715 241.177,528.785 C247.998,525.852 252.324,522.924 252.368,522.895 L251.699,521.906 L251.831,523.093 L265.318,521.595 L265.186,520.408 L264.827,521.546 L264.836,521.55 C264.988,521.598 266.716,522.178 268.814,523.431 C270.914,524.682 273.367,526.603 275.037,529.282 C276.635,531.838 278.394,533.61 280.333,534.747 C282.269,535.885 284.351,536.362 286.489,536.447 L286.491,536.447 L286.624,536.449 C286.964,536.448 287.374,536.408 287.852,536.321 C288.563,536.184 289.396,535.953 290.165,535.48 C290.548,535.241 290.922,534.933 291.218,534.508 C291.514,534.088 291.712,533.533 291.708,532.95 C291.708,532.68 291.669,532.407 291.596,532.139 L290.444,532.452 L291.634,532.355 C291.542,531.275 291.187,530.087 290.649,528.735 C289.031,524.702 285.684,519.19 281.835,513.195 L280.831,513.841 L279.951,514.648 C280.543,515.274 281.254,515.6 282.018,515.93 C283.166,516.409 284.487,516.835 285.7,517.452 C286.915,518.067 287.985,518.845 288.708,519.971 C290.27,522.4 292.378,525.603 294.841,528.254 C296.074,529.579 297.399,530.771 298.827,531.657 C300.251,532.539 301.803,533.125 303.448,533.126 C304.159,533.126 304.881,533.014 305.591,532.777 C306.457,532.498 307.174,531.913 307.581,531.184 C307.995,530.457 308.132,529.65 308.133,528.84 C308.129,527.53 307.779,526.15 307.292,524.76 C305.822,520.616 303.008,516.373 302.985,516.33 L301.988,516.987 L303.049,516.44 C303.049,516.44 300.669,511.827 299.13,508.851 L298.069,509.399 L299.237,509.149 C298.829,507.252 298.103,504.708 297.229,502.231 C296.349,499.75 295.344,497.364 294.292,495.72 C293.41,494.348 292.544,493.281 291.594,492.42 C290.166,491.124 288.584,490.343 286.674,489.63 C284.757,488.913 282.469,488.235 279.411,487.123 L279.003,488.245 L279.756,487.319 C276.802,484.919 274.616,482.788 272.799,481.12 C271.89,480.286 271.072,479.566 270.275,478.982 C269.479,478.4 268.697,477.943 267.84,477.695 C267.089,477.485 266.149,477.39 265.005,477.32 C263.867,477.254 262.554,477.231 261.192,477.231 C257.646,477.231 253.746,477.389 252.102,477.388 C251.54,477.392 250.976,477.508 250.334,477.686 C249.219,478 247.888,478.528 246.402,479.189 C241.958,481.167 236.15,484.355 232.223,486.402 C226.082,489.605 201.774,502.604 201.772,502.606 L202.334,503.658 L202.644,502.505 C202.643,502.505 202.374,502.433 201.869,502.293 C198.338,501.32 183.415,497.095 171.987,492.332 C165.429,489.6 148.675,482.185 133.582,475.462 C126.034,472.099 118.898,468.908 113.648,466.558 C111.024,465.383 108.871,464.418 107.374,463.747 C105.877,463.075 105.039,462.699 105.037,462.698 C104.435,462.428 103.729,462.697 103.459,463.298 C103.189,463.9 103.457,464.606 104.059,464.876 C104.06,464.876 117.511,470.916 132.611,477.643 C147.714,484.37 164.451,491.779 171.069,494.535 C184.358,500.07 202,504.803 202.025,504.811 C202.32,504.89 202.628,504.855 202.897,504.711 C202.901,504.709 204.417,503.898 206.792,502.629 C213.915,498.824 228.746,490.908 233.327,488.519 C236.344,486.945 240.419,484.73 244.095,482.917 C245.931,482.011 247.669,481.206 249.102,480.638 C249.817,480.355 250.457,480.131 250.98,479.984 C251.5,479.835 251.914,479.772 252.102,479.776 C253.852,479.775 257.701,479.618 261.192,479.618 C262.526,479.618 263.803,479.642 264.866,479.703 C265.923,479.761 266.795,479.874 267.182,479.99 C267.636,480.119 268.197,480.417 268.864,480.908 C269.867,481.64 271.088,482.782 272.611,484.202 C274.135,485.622 275.969,487.318 278.25,489.172 C278.353,489.255 278.471,489.322 278.595,489.367 C282.76,490.877 285.506,491.611 287.462,492.541 C288.444,493.005 289.233,493.505 289.991,494.189 C290.747,494.875 291.48,495.76 292.284,497.011 C293.147,498.346 294.141,500.648 294.978,503.026 C295.819,505.407 296.526,507.891 296.902,509.649 C296.926,509.759 296.958,509.848 297.009,509.948 C297.778,511.435 298.758,513.332 299.545,514.857 C300.333,516.382 300.926,517.532 300.927,517.535 L300.992,517.644 L301.042,517.721 C301.298,518.118 302.503,520.013 303.627,522.277 C304.188,523.407 304.729,524.63 305.121,525.786 C305.515,526.94 305.75,528.034 305.746,528.84 C305.747,529.376 305.646,529.763 305.509,529.998 C305.366,530.231 305.22,530.375 304.836,530.512 C304.368,530.668 303.911,530.738 303.448,530.739 C302.387,530.74 301.257,530.354 300.084,529.627 C298.326,528.544 296.536,526.71 294.928,524.693 C293.316,522.675 291.874,520.483 290.716,518.68 C290.025,517.604 289.134,516.787 288.201,516.153 C286.799,515.204 285.295,514.641 284.064,514.17 C283.449,513.936 282.902,513.725 282.486,513.526 C282.068,513.33 281.796,513.135 281.711,513.034 C281.292,512.577 280.593,512.517 280.102,512.895 C279.612,513.274 279.492,513.965 279.827,514.486 C282.377,518.454 284.696,522.209 286.397,525.376 C287.247,526.959 287.942,528.395 288.432,529.621 C288.924,530.845 289.203,531.869 289.255,532.549 L289.293,532.765 L289.321,532.95 C289.313,533.061 289.307,533.093 289.183,533.236 C289.002,533.439 288.493,533.704 287.949,533.849 C287.415,534.003 286.834,534.065 286.624,534.062 L286.585,534.061 L286.587,534.061 C284.726,533.983 283.087,533.592 281.541,532.688 C279.997,531.78 278.512,530.332 277.062,528.016 C275.04,524.787 272.168,522.624 269.815,521.249 C267.458,519.876 265.604,519.289 265.545,519.27 C265.386,519.22 265.22,519.203 265.054,519.222 L251.567,520.72 C251.373,520.741 251.192,520.808 251.03,520.918 L250.989,520.945 C250.524,521.255 246.171,524.101 239.606,526.858 C233.041,529.618 224.266,532.278 214.98,532.276 C211.272,532.276 207.482,531.854 203.707,530.851 L203.401,532.005 L203.749,530.863 C192.684,527.487 164.91,519.317 138.397,511.38 C125.142,507.412 112.203,503.502 101.834,500.282 C96.65,498.672 92.107,497.234 88.493,496.049 C84.881,494.865 82.183,493.927 80.745,493.342 L80.296,494.448 L81.428,494.826 C82.669,491.1 85.343,483.326 89.003,476.553 C90.829,473.169 92.906,470.041 95.109,467.821 C96.209,466.71 97.337,465.829 98.46,465.237 C99.586,464.644 100.696,464.338 101.821,464.337 C102.503,464.337 103.197,464.45 103.921,464.698 C104.544,464.912 105.224,464.581 105.438,463.957 C105.652,463.334 105.321,462.655 104.697,462.44" fill="#1A1919"/>
    <path d="M283.855,515.993 C283.537,515.451 283.099,515.015 282.546,514.522 C281.582,513.676 280.254,512.74 278.762,511.773 C276.526,510.327 273.935,508.831 271.798,507.658 C270.73,507.072 269.777,506.568 269.038,506.191 C268.667,506.002 268.351,505.845 268.095,505.724 C267.831,505.6 267.661,505.521 267.458,505.45 C266.833,505.241 266.156,505.577 265.946,506.202 C265.737,506.827 266.073,507.504 266.698,507.714 L266.729,507.623 L266.696,507.713 L266.698,507.714 L266.729,507.623 L266.696,507.713 C266.713,507.718 266.828,507.766 266.977,507.836 C267.555,508.105 268.735,508.709 270.164,509.486 C272.313,510.654 275.055,512.224 277.364,513.713 C278.518,514.456 279.564,515.181 280.36,515.809 C280.757,516.123 281.092,516.413 281.339,516.657 C281.586,516.898 281.744,517.104 281.783,517.179 C282.111,517.751 282.84,517.949 283.412,517.622 C283.984,517.295 284.183,516.565 283.855,515.993" fill="#1A1919"/>
    <path d="M299.638,512.014 C296.588,509.094 293.961,503.215 286.489,500.725 C279.162,498.283 272.8,497.117 267.556,495.992" fill="#F9D8BE"/>
    <path d="M300.463,511.151 C299.092,509.853 297.646,507.636 295.601,505.4 C293.552,503.165 290.835,500.911 286.867,499.592 C279.452,497.122 273.024,495.945 267.806,494.825 C267.161,494.687 266.527,495.097 266.389,495.742 C266.25,496.386 266.661,497.021 267.305,497.159 C272.577,498.289 278.872,499.445 286.112,501.857 C289.615,503.029 291.948,504.959 293.843,507.016 C295.741,509.072 297.134,511.255 298.812,512.876 C299.288,513.332 300.044,513.315 300.5,512.839 C300.956,512.363 300.939,511.607 300.463,511.151" fill="#1A1919"/>
    <path d="M267.191,485.237 C267.191,485.237 279.786,488.506 282.138,489.55" fill="#F9D8BE"/>
    <path d="M266.891,486.393 C266.893,486.393 267.675,486.596 268.89,486.918 C270.712,487.401 273.502,488.151 276.049,488.875 C277.322,489.237 278.534,489.592 279.529,489.903 C280.518,490.211 281.313,490.488 281.653,490.641 C282.256,490.908 282.961,490.637 283.229,490.034 C283.496,489.432 283.225,488.726 282.622,488.459 C282.257,488.298 281.786,488.128 281.197,487.932 C279.151,487.253 275.744,486.297 272.824,485.502 C269.908,484.709 267.494,484.083 267.491,484.082 C266.853,483.916 266.201,484.299 266.035,484.937 C265.87,485.576 266.253,486.227 266.891,486.393" fill="#1A1919"/>
    <path d="M61.592,336.162 L61.586,336.083 L61.59,336.162 L61.592,336.162 L61.586,336.083 L61.59,336.162 C61.607,336.161 61.679,336.158 61.8,336.158 C62.819,336.161 67.26,336.392 72.355,340.326 C77.448,344.263 83.281,351.959 86.906,367.167 C90.861,383.776 93.43,395.832 95.01,403.732 C95.799,407.682 96.342,410.593 96.687,412.515 C96.859,413.475 96.982,414.188 97.062,414.66 C97.142,415.132 97.177,415.358 97.177,415.359 L98.356,415.173 L97.176,414.996 C97.171,415.035 96.658,418.455 96.657,423.03 C96.658,425.701 96.831,428.765 97.395,431.793 C97.96,434.821 98.909,437.819 100.516,440.35 L100.636,440.507 L100.646,440.519 C100.782,440.671 102.177,442.271 103.514,444.556 C104.857,446.839 106.11,449.807 106.1,452.597 C106.1,453.238 106.037,453.871 105.899,454.491 C105.873,454.611 105.865,454.74 105.876,454.862 L105.88,454.911 C105.902,455.154 105.992,456.278 105.991,457.631 C105.993,458.761 105.926,460.058 105.724,461.091 C105.626,461.606 105.491,462.052 105.347,462.358 C105.205,462.669 105.058,462.807 105.018,462.827 C104.459,463.176 104.289,463.913 104.639,464.472 C104.988,465.031 105.725,465.2 106.284,464.851 C106.882,464.471 107.245,463.929 107.51,463.369 C107.902,462.521 108.096,461.559 108.221,460.563 C108.342,459.569 108.379,458.546 108.379,457.631 C108.379,455.967 108.255,454.662 108.253,454.638 L107.064,454.75 L108.23,455.009 C108.409,454.204 108.488,453.396 108.488,452.597 C108.477,449.002 106.929,445.627 105.433,443.112 C103.93,440.6 102.444,438.949 102.41,438.91 L101.523,439.709 L102.53,439.068 C101.154,436.91 100.267,434.187 99.742,431.356 C99.215,428.526 99.044,425.596 99.045,423.03 C99.045,420.832 99.169,418.901 99.293,417.526 C99.354,416.839 99.416,416.29 99.462,415.915 C99.485,415.728 99.504,415.584 99.517,415.488 C99.531,415.393 99.537,415.35 99.537,415.35 C99.555,415.229 99.555,415.108 99.535,414.987 C99.53,414.953 97.15,399.885 89.229,366.614 C85.523,351.032 79.423,342.765 73.815,338.436 C68.209,334.105 63.181,333.768 61.8,333.771 C61.578,333.771 61.449,333.779 61.422,333.781 C60.764,333.828 60.269,334.399 60.316,335.056 C60.363,335.714 60.934,336.209 61.592,336.162" fill="#1A1919"/>
    <path d="M87.02,475.549 C87.007,475.574 84.616,479.956 82.118,485.95 C79.622,491.952 77.005,499.537 76.586,506.123 C76.567,506.432 76.669,506.737 76.87,506.973 C76.915,507.023 77.368,507.552 78.155,508.101 C78.939,508.643 80.084,509.233 81.511,509.238 C82.225,509.24 82.996,509.08 83.754,508.708 C84.896,508.149 85.988,507.142 87.007,505.588 C88.027,504.029 88.99,501.909 89.88,499.019 C90.074,498.389 89.72,497.721 89.09,497.527 C88.46,497.333 87.792,497.687 87.598,498.317 C86.477,501.971 85.257,504.17 84.179,505.379 C83.64,505.986 83.144,506.349 82.706,506.563 C82.267,506.776 81.882,506.85 81.511,506.851 C80.784,506.856 80.062,506.522 79.518,506.141 C79.248,505.953 79.027,505.761 78.881,505.622 L78.72,505.46 L78.686,505.423 L78.685,505.422 L77.777,506.197 L78.969,506.272 C79.341,500.192 81.869,492.739 84.321,486.869 C85.546,483.93 86.747,481.38 87.641,479.567 C88.089,478.661 88.459,477.94 88.716,477.446 C88.845,477.199 88.945,477.009 89.013,476.882 C89.081,476.755 89.115,476.693 89.115,476.693 C89.431,476.114 89.218,475.389 88.639,475.073 C88.06,474.757 87.335,474.971 87.02,475.549" fill="#1A1919"/>
    <path d="M93.249,446.488 C93.215,446.499 85.653,448.885 77.254,452.984 C73.053,455.035 68.641,457.512 64.842,460.361 C61.046,463.214 57.84,466.428 56.117,470.071 C55.837,470.667 56.092,471.378 56.689,471.659 C57.286,471.94 57.997,471.684 58.277,471.087 C59.721,468.002 62.649,464.983 66.274,462.271 C71.706,458.194 78.652,454.795 84.222,452.44 C87.008,451.261 89.45,450.34 91.193,449.715 C92.065,449.402 92.761,449.164 93.239,449.004 C93.477,448.924 93.661,448.863 93.784,448.823 C93.908,448.783 93.967,448.764 93.967,448.764 C94.596,448.566 94.945,447.895 94.746,447.267 C94.548,446.638 93.877,446.289 93.249,446.488" fill="#1A1919"/>
    <path d="M65.552,498.89 C65.553,498.891 67.805,500.539 70.373,502.399 C72.945,504.261 75.816,506.323 77.115,507.19 C77.663,507.556 78.404,507.408 78.77,506.86 C79.136,506.311 78.988,505.57 78.44,505.204 C77.221,504.391 74.331,502.318 71.773,500.465 C70.492,499.537 69.289,498.662 68.407,498.018 C67.524,497.375 66.964,496.965 66.962,496.964 C66.43,496.574 65.684,496.69 65.294,497.222 C64.905,497.754 65.02,498.5 65.552,498.89" fill="#1A1919"/>
    <g>
      <path d="M190.077,247.091 L190.079,247.092 L190.076,247.09 L190.077,247.091 L190.079,247.092 L190.076,247.09 C189.994,247.23 189.313,248.363 187.356,249.486 C185.399,250.606 182.139,251.728 176.845,251.729 C176.375,251.729 175.89,251.721 175.388,251.702 C170.617,251.526 166.377,251.237 162.521,250.165 C158.663,249.089 155.173,247.262 151.759,243.903 C151.289,243.44 150.533,243.446 150.07,243.916 C149.606,244.386 149.612,245.142 150.082,245.605 C153.767,249.245 157.698,251.311 161.882,252.467 C166.068,253.627 170.49,253.909 175.3,254.09 C175.83,254.109 176.345,254.119 176.845,254.119 C182.849,254.121 186.669,252.746 188.998,251.288 C191.329,249.832 192.139,248.314 192.214,248.159 C192.509,247.569 192.27,246.851 191.68,246.556 C191.089,246.261 190.372,246.501 190.077,247.091" fill="#1A1919"/>
      <path d="M553.2,385.573 C553.2,385.573 563.961,366.01 551.243,365.031 C538.531,364.053 382.037,395.352 382.037,395.352 C382.037,395.352 365.41,398.287 361.499,411.002 C357.587,423.717 295.968,589.011 295.968,589.011 C295.968,589.011 291.075,600.746 304.771,596.834 C318.462,592.923 482.78,540.106 482.78,540.106 C482.78,540.106 493.539,537.171 500.385,521.523 C507.23,505.875 553.2,385.573 553.2,385.573" fill="#E4E4E3"/>
    </g>
    <path d="M553.2,385.573 L554.246,386.148 C554.262,386.119 555.345,384.151 556.435,381.4 C557.522,378.644 558.637,375.128 558.645,371.859 C558.644,369.933 558.247,368.033 557.056,366.516 C556.464,365.762 555.677,365.128 554.717,364.675 C553.757,364.221 552.632,363.941 551.335,363.841 C551.098,363.823 550.84,363.815 550.555,363.815 C549.419,363.816 547.821,363.939 545.764,364.163 C538.068,365.004 524.015,367.297 507.21,370.268 C456.812,379.179 381.807,394.18 381.803,394.181 L382.037,395.352 L381.83,394.176 C381.76,394.19 377.511,394.938 372.701,397.341 C370.296,398.544 367.748,400.164 365.523,402.339 C363.3,404.512 361.402,407.255 360.358,410.651 C359.887,412.185 358.493,416.171 356.437,421.898 C349.233,441.965 333.834,483.644 320.239,520.299 C313.441,538.628 307.094,555.702 302.446,568.193 C300.122,574.439 298.223,579.539 296.904,583.078 C296.245,584.847 295.732,586.226 295.383,587.163 C295.034,588.099 294.85,588.592 294.849,588.594 L295.968,589.011 L294.866,588.551 C294.852,588.585 294.623,589.137 294.392,589.975 C294.162,590.813 293.926,591.935 293.924,593.143 C293.925,593.781 293.991,594.446 294.18,595.106 C294.455,596.091 295.043,597.084 296.035,597.773 C297.025,598.466 298.339,598.827 299.97,598.826 C301.387,598.825 303.065,598.562 305.098,597.982 C308.566,596.991 321.383,592.962 338.722,587.458 C390.716,570.952 483.145,541.243 483.146,541.243 L482.78,540.106 L483.094,541.258 C483.208,541.227 486.042,540.436 489.737,537.634 C493.431,534.833 497.976,530.012 501.478,522.002 C503.21,518.042 507.361,507.602 512.637,494.114 C528.457,453.67 554.315,386.001 554.315,385.999 L553.2,385.573 L554.246,386.148 L553.2,385.573 L552.085,385.147 C552.085,385.148 551.906,385.617 551.567,386.502 C549.03,393.138 537.56,423.119 525.923,453.272 C520.105,468.349 514.245,483.469 509.439,495.735 C504.635,507.996 500.876,517.423 499.291,521.045 C495.948,528.682 491.69,533.152 488.294,535.732 C486.595,537.02 485.111,537.834 484.064,538.321 C483.541,538.565 483.127,538.727 482.851,538.827 C482.713,538.876 482.61,538.91 482.544,538.931 L482.475,538.952 L482.463,538.956 L482.552,539.271 L482.466,538.955 L482.463,538.956 L482.552,539.271 L482.466,538.955 L482.415,538.97 C482.413,538.971 481.773,539.176 480.566,539.564 C471.515,542.472 430.684,555.589 390.512,568.437 C370.426,574.86 350.505,581.217 334.804,586.196 C319.109,591.174 307.608,594.782 304.443,595.686 C302.562,596.224 301.086,596.439 299.97,596.439 C299.109,596.439 298.468,596.312 297.998,596.129 C297.296,595.847 296.948,595.48 296.686,594.99 C296.431,594.5 296.31,593.848 296.312,593.143 C296.31,592.256 296.499,591.312 296.694,590.608 C296.791,590.256 296.888,589.963 296.96,589.762 C296.995,589.662 297.025,589.585 297.044,589.535 L297.065,589.48 L297.07,589.47 L297.086,589.428 C297.086,589.427 312.491,548.103 328.386,505.189 C336.333,483.732 344.402,461.877 350.73,444.59 C353.894,435.947 356.623,428.445 358.684,422.705 C360.746,416.958 362.133,412.998 362.64,411.353 C363.552,408.392 365.198,405.999 367.193,404.046 C370.181,401.118 373.961,399.214 376.993,398.067 C378.508,397.492 379.834,397.105 380.775,396.862 C381.245,396.741 381.619,396.656 381.872,396.602 C381.999,396.575 382.095,396.556 382.158,396.543 L382.227,396.53 L382.245,396.527 L382.271,396.522 C382.273,396.522 382.863,396.404 383.978,396.181 C392.341,394.515 430.102,387.015 467.737,379.933 C486.553,376.392 505.339,372.955 520.397,370.405 C527.925,369.13 534.522,368.076 539.717,367.343 C544.903,366.609 548.731,366.199 550.555,366.202 C550.795,366.202 550.997,366.209 551.151,366.221 C552.216,366.303 553.048,366.526 553.695,366.833 C554.662,367.298 555.247,367.928 555.659,368.761 C556.064,369.593 556.259,370.656 556.258,371.859 C556.266,374.575 555.255,377.916 554.216,380.52 C553.699,381.825 553.179,382.953 552.791,383.749 C552.597,384.148 552.436,384.463 552.324,384.678 C552.268,384.785 552.225,384.867 552.196,384.921 L552.154,384.998 L552.085,385.147 L553.2,385.573" fill="#1A1919"/>
    <path d="M308.459,526.922 L318.231,524.235 C318.703,524.105 319.048,523.7 319.101,523.213 C319.154,522.725 318.904,522.256 318.47,522.028 L301.774,513.239 C301.19,512.931 300.469,513.155 300.161,513.739 C299.854,514.322 300.078,515.044 300.662,515.351 L314.686,522.734 L307.826,524.62 C307.19,524.795 306.817,525.452 306.992,526.088 C307.166,526.724 307.823,527.097 308.459,526.922" fill="#1A1919"/>
    <path d="M291.021,531.756 L297.281,530.022 C297.917,529.847 298.289,529.189 298.113,528.553 C297.937,527.918 297.28,527.546 296.644,527.722 L290.384,529.455 C289.748,529.631 289.376,530.289 289.552,530.924 C289.728,531.559 290.385,531.932 291.021,531.756" fill="#1A1919"/>
    <path d="M268.461,520.93 L245.768,527.221 C245.26,527.361 244.903,527.821 244.893,528.348 C244.883,528.874 245.221,529.348 245.723,529.508 L270.174,537.331 C270.412,537.407 270.661,537.408 270.899,537.332 L279.842,534.494 C280.471,534.295 280.819,533.624 280.619,532.995 C280.42,532.367 279.749,532.019 279.12,532.219 L270.54,534.941 L250.259,528.453 L269.099,523.23 C269.734,523.054 270.107,522.396 269.931,521.761 C269.754,521.126 269.097,520.754 268.461,520.93" fill="#1A1919"/>
    <path d="M549.416,369.614 C549.416,369.614 396.099,398.888 385.186,401.368" fill="#F9D8BE"/>
    <path d="M549.192,368.442 C549.192,368.442 510.862,375.76 471.168,383.389 C451.321,387.203 431.132,391.095 415.223,394.188 C407.268,395.735 400.383,397.082 395.143,398.121 C389.901,399.16 386.32,399.886 384.921,400.204 C384.278,400.35 383.875,400.99 384.022,401.633 C384.168,402.276 384.807,402.678 385.45,402.532 C386.779,402.23 390.377,401.499 395.608,400.462 C413.929,396.831 452.44,389.412 486.367,382.901 C503.331,379.645 519.149,376.617 530.726,374.402 C536.515,373.295 541.243,372.391 544.525,371.764 C547.806,371.137 549.64,370.787 549.64,370.787 C550.287,370.663 550.712,370.038 550.589,369.39 C550.465,368.743 549.84,368.318 549.192,368.442" fill="#1A1919"/>
    <path d="M365.338,425.186 C365.338,425.186 305.799,583.466 303.317,588.923" fill="#F9D8BE"/>
    <path d="M364.221,424.766 C364.22,424.768 363.988,425.384 363.551,426.545 C360.276,435.249 345.52,474.459 331.292,512.132 C324.178,530.969 317.196,549.421 311.848,563.482 C309.174,570.513 306.908,576.446 305.239,580.78 C304.404,582.946 303.719,584.713 303.207,586.015 C302.698,587.311 302.349,588.169 302.231,588.429 C301.958,589.029 302.223,589.737 302.823,590.009 C303.423,590.282 304.131,590.017 304.404,589.417 C304.587,589.013 304.957,588.091 305.534,586.621 C314.13,564.709 366.453,425.612 366.455,425.607 C366.687,424.99 366.375,424.301 365.758,424.069 C365.141,423.837 364.453,424.149 364.221,424.766" fill="#1A1919"/>
    <path d="M297.203,583.229 L222.567,558.744 L317.533,532.017 C318.168,531.838 318.538,531.179 318.359,530.545 C318.18,529.91 317.521,529.54 316.887,529.719 L218.148,557.507 C217.642,557.65 217.289,558.105 217.278,558.631 C217.267,559.157 217.599,559.626 218.1,559.79 L296.459,585.497 C297.085,585.703 297.76,585.362 297.965,584.735 C298.171,584.109 297.83,583.435 297.203,583.229" fill="#1A1919"/>
    <path d="M301.674,571.404 L238.662,552.55 C238.03,552.361 237.365,552.72 237.176,553.351 C236.987,553.983 237.346,554.648 237.977,554.837 L300.99,573.691 C301.621,573.88 302.287,573.522 302.476,572.89 C302.665,572.258 302.306,571.593 301.674,571.404" fill="#1A1919"/>
    <path d="M310.181,547.332 L249.364,566.946 C248.737,567.148 248.392,567.821 248.594,568.448 C248.797,569.076 249.469,569.42 250.097,569.218 L310.914,549.604 C311.542,549.401 311.886,548.729 311.684,548.101 C311.482,547.474 310.809,547.129 310.181,547.332" fill="#1A1919"/>
    <path d="M445.993,478.728 C447.435,475.087 453.158,470.206 461.479,465.766 C458.503,464.169 453.774,464.393 448.315,466.567 C438.73,470.389 431.629,478.252 430.601,483.934 C429.726,488.735 433.231,491.825 439.252,491.4 C444.187,491.055 450.315,488.502 455.479,484.45 C448.191,484.915 444.418,482.707 445.993,478.728" fill="#FFFFFE"/>
    <path d="M228.485,433.706 C228.485,433.706 245.256,427.16 257.12,446.797 C248.938,445.978 248.938,443.112 237.075,445.159" fill="#F5CCD8"/>
    <path d="M228.919,434.818 L228.868,434.689 L228.918,434.818 L228.919,434.818 L228.868,434.689 L228.918,434.818 C228.987,434.791 231.497,433.85 235.148,433.852 C237.978,433.853 241.483,434.408 245.14,436.362 C248.797,438.319 252.632,441.681 256.098,447.414 L257.12,446.797 L257.239,445.609 C254.288,445.312 252.501,444.758 250.665,444.239 C248.836,443.718 246.938,443.238 244.149,443.242 C242.248,443.243 239.932,443.455 236.872,443.983 C236.223,444.095 235.787,444.712 235.899,445.362 C236.011,446.012 236.629,446.448 237.278,446.335 C240.246,445.823 242.428,445.63 244.149,445.63 C246.677,445.634 248.214,446.029 250.015,446.536 C251.809,447.044 253.849,447.671 257.001,447.985 C257.451,448.03 257.887,447.818 258.129,447.435 C258.371,447.052 258.376,446.567 258.141,446.18 C254.49,440.131 250.323,436.423 246.266,434.257 C242.209,432.087 238.287,431.464 235.148,431.465 C230.958,431.467 228.144,432.559 228.051,432.594 C227.437,432.834 227.133,433.526 227.373,434.14 C227.613,434.754 228.305,435.058 228.919,434.818" fill="#1A1919"/>
    <path d="M91.547,166.106 C74.345,170.356 63.845,187.744 68.095,204.943 C72.35,222.152 89.741,232.647 106.943,228.392 C124.146,224.142 131.53,210.295 127.276,193.084 C123.025,175.887 108.747,161.851 91.547,166.106 z" fill="url(#Gradient_1)"/>
    <path d="M242.292,182.883 C239.634,182.654 236.872,182.814 234.021,183.519 C216.818,187.769 206.318,205.157 210.569,222.356 C213.064,232.448 220.092,240.2 228.937,244.054 C234.384,235.038 237.199,225.915 237.199,220.766 C237.199,211.745 239.013,198.46 242.292,182.883 z" fill="url(#Gradient_2)"/>
    <path d="M233.589,162.324 C233.589,162.324 235.904,167.739 235.681,169.844 C235.457,171.945 230.549,193.778 216.539,189.704 C202.529,185.627 207.697,162.762 209.306,160.497 C210.917,158.241 219.998,154.34 224.846,155.919 C229.694,157.5 233.589,162.324 233.589,162.324" fill="#FFFFFE"/>
    <path d="M207.706,165.97 C208.21,163.256 208.868,161.239 209.291,160.645 C210.898,158.384 219.98,154.486 224.831,156.065 C229.679,157.644 233.573,162.468 233.573,162.468 C233.573,162.468 235.89,167.883 235.666,169.988 C235.604,170.568 235.188,172.629 234.329,175.235 C230.458,161.176 219.626,158.312 207.706,165.97" fill="#B4B5B4"/>
    <path d="M217.79,166.825 C215.518,167.11 209.977,169.735 210.144,179.456 C210.274,186.904 215.114,189.824 219.356,188.669 C224.386,187.298 226.691,180.551 225.929,174.507 C225.165,168.472 220.544,166.482 217.79,166.825" fill="#66462B"/>
    <path d="M217.79,166.825 L217.642,165.64 C216.923,165.731 216.048,165.983 215.101,166.471 C213.687,167.201 212.126,168.479 210.938,170.522 C209.748,172.563 208.944,175.344 208.946,179.029 C208.946,179.177 208.947,179.326 208.949,179.477 C209.007,182.893 210.005,185.557 211.602,187.373 C213.193,189.192 215.367,190.113 217.545,190.108 C218.259,190.108 218.973,190.012 219.67,189.822 C220.962,189.47 222.103,188.812 223.06,187.95 C224.499,186.656 225.54,184.921 226.232,182.994 C226.923,181.065 227.266,178.934 227.267,176.796 C227.266,175.981 227.216,175.165 227.115,174.358 L227.114,174.357 C226.733,171.294 225.392,169.053 223.719,167.637 C222.045,166.217 220.095,165.597 218.409,165.593 C218.148,165.593 217.892,165.608 217.642,165.64 L217.938,168.011 C218.083,167.993 218.241,167.983 218.409,167.983 C219.501,167.979 220.957,168.417 222.17,169.456 C223.386,170.498 224.416,172.118 224.744,174.657 C224.833,175.362 224.877,176.079 224.877,176.796 C224.879,179.304 224.327,181.801 223.307,183.737 C222.798,184.705 222.176,185.533 221.464,186.172 C220.75,186.812 219.95,187.268 219.042,187.516 C218.546,187.651 218.043,187.718 217.545,187.718 C216.024,187.714 214.554,187.107 213.397,185.796 C212.245,184.485 211.393,182.42 211.339,179.435 C211.336,179.298 211.335,179.163 211.335,179.029 C211.342,174.568 212.602,171.92 214.02,170.31 C214.733,169.505 215.499,168.956 216.199,168.594 C216.897,168.231 217.538,168.059 217.939,168.011 L217.79,166.825" fill="#1A1919"/>
    <path d="M222.238,178.318 C221.939,181.341 220.062,183.612 218.043,183.377 C216.024,183.148 214.629,180.506 214.931,177.483 C215.23,174.454 217.108,172.184 219.126,172.414 C221.144,172.646 222.538,175.287 222.238,178.318" fill="#1A1919"/>
    <path d="M230.441,172.205 C229.682,170.505 226.744,170.38 223.881,171.922 C221.018,173.469 219.322,176.091 220.08,177.793 C220.843,179.491 223.778,179.619 226.64,178.076 C229.499,176.534 231.204,173.909 230.441,172.205" fill="#FFFFFE"/>
    <path d="M236.555,171.092 C236.555,171.092 233.783,158.215 225.856,157.121 C217.93,156.021 211.684,159.142 207.757,162.999 C206.657,163.887 208.425,159.952 211.595,157.624 C214.078,155.808 218.484,153.505 226.432,155.179 C234.77,156.94 237.593,168.437 236.555,171.092" fill="#1A1919"/>
    <g clip-path="url(#Clip_1)">
      <path d="M236.555,171.092 L237.723,170.84 C237.708,170.783 237.004,167.491 235.246,163.981 C234.364,162.225 233.218,160.409 231.713,158.916 C230.213,157.428 228.315,156.253 226.02,155.937 C224.872,155.778 223.754,155.703 222.67,155.703 C215.894,155.702 210.487,158.639 206.92,162.147 L207.757,162.999 L207.006,162.069 L207.017,162.083 L207.008,162.069 L207.006,162.069 L207.017,162.083 L207.008,162.069 L207.371,162.601 L207.12,162.009 L207.008,162.069 L207.371,162.601 L207.12,162.009 L207.514,162.939 L207.514,161.932 C207.308,161.935 207.192,161.981 207.12,162.009 L207.514,162.939 L207.514,161.932 L207.514,163.047 L208.028,162.059 C207.846,161.964 207.655,161.931 207.514,161.932 L207.514,163.047 L208.028,162.059 L207.514,163.048 L208.553,162.64 C208.492,162.466 208.31,162.201 208.028,162.059 L207.514,163.048 L208.553,162.64 L207.637,162.999 L208.624,162.999 C208.622,162.931 208.621,162.82 208.553,162.64 L207.637,162.999 L208.624,162.999 L208.1,162.999 L208.614,163.114 L208.624,162.999 L208.1,162.999 L208.614,163.114 C208.611,163.104 208.711,162.821 208.894,162.49 C209.442,161.46 210.716,159.742 212.302,158.586 L212.3,158.588 C214.065,157.31 216.728,155.805 221.227,155.794 C222.678,155.794 224.322,155.956 226.186,156.348 C227.783,156.687 229.148,157.423 230.33,158.426 C232.1,159.926 233.432,162.043 234.299,164.147 C235.17,166.242 235.571,168.339 235.566,169.638 C235.57,170.152 235.494,170.539 235.442,170.657 L236.555,171.092 L237.723,170.84 L236.555,171.092 L237.667,171.527 C237.887,170.95 237.951,170.34 237.955,169.638 C237.953,168.479 237.742,167.08 237.316,165.564 C236.673,163.295 235.546,160.774 233.817,158.613 C232.093,156.459 229.724,154.652 226.679,154.01 C224.667,153.586 222.856,153.404 221.227,153.405 C216.171,153.394 212.88,155.192 210.89,156.659 L210.887,156.661 C209.486,157.692 208.374,158.963 207.586,160.082 C207.192,160.642 206.881,161.164 206.654,161.62 C206.541,161.849 206.448,162.061 206.375,162.27 C206.306,162.486 206.241,162.673 206.234,162.999 C206.24,163.169 206.243,163.412 206.448,163.744 C206.55,163.906 206.721,164.074 206.925,164.178 C207.128,164.285 207.344,164.323 207.514,164.322 C207.842,164.316 208.025,164.225 208.168,164.155 C208.308,164.081 208.41,164.006 208.507,163.929 L208.594,163.851 C211.796,160.711 216.604,158.092 222.67,158.092 C223.644,158.092 224.651,158.16 225.692,158.304 C227.361,158.535 228.782,159.381 230.031,160.614 C231.901,162.456 233.28,165.159 234.147,167.394 C234.582,168.511 234.895,169.509 235.097,170.222 C235.198,170.579 235.272,170.864 235.319,171.058 C235.343,171.155 235.361,171.229 235.372,171.277 L235.387,171.343 C235.498,171.858 235.934,172.24 236.459,172.283 C236.984,172.325 237.475,172.018 237.667,171.527 L236.555,171.092" fill="#1A1919"/>
      <path d="M199.764,101.874 C215.083,119.487 228.427,138.65 235.569,153.703 C239.484,137.44 209.648,76.867 209.566,76.278 C233.368,102.194 244.302,165.663 244.302,165.663 C249.063,194.452 242.972,224.302 235.839,241.744 C233.224,248.133 220.761,275.417 217.897,277.592 C221.933,274.527 232.811,258.28 237.978,252.708 C271.9,213.442 266.182,158.978 265.124,134.558 C263.885,106.012 250.399,35.09 192.36,13.457 C134.322,-8.181 65.934,-0.728 34.498,38.19 C-6.599,89.067 0.987,141.004 3.198,165.035 C5.414,189.063 29.719,256.85 60.485,274.599 C56.528,255.602 39.82,197.386 41.759,197.891 C48.587,246.623 65.499,260.036 69.222,268.725 C62.999,235.935 77.221,149.169 83.724,138.14 C109.454,126.33 140.064,80.816 150.185,66.175 C150.185,66.175 192.898,129.908 225.508,142.493 C225.508,142.493 208.109,114.075 199.764,101.874" fill="#7D573B"/>
      <path d="M199.764,101.874 L198.862,102.659 C214.124,120.201 227.426,139.319 234.489,154.215 C234.706,154.671 235.19,154.943 235.692,154.891 C236.195,154.839 236.612,154.473 236.73,153.982 C237,152.858 237.117,151.601 237.118,150.219 C237.11,144.968 235.433,137.83 232.955,129.942 C229.233,118.127 223.673,104.7 219.033,94.159 C216.713,88.889 214.623,84.343 213.11,81.089 C212.354,79.462 211.741,78.157 211.318,77.25 C211.106,76.797 210.941,76.442 210.832,76.2 C210.777,76.08 210.736,75.987 210.712,75.933 L210.694,75.89 L210.084,76.125 L210.706,75.922 L210.694,75.89 L210.084,76.125 L210.706,75.922 L209.654,76.266 L210.749,76.113 C210.727,75.972 210.713,75.951 210.706,75.922 L209.654,76.266 L210.749,76.113 L209.566,76.278 L208.686,77.086 C214.506,83.419 219.61,92.149 223.948,101.673 C230.46,115.961 235.264,132.028 238.429,144.509 C240.012,150.749 241.187,156.094 241.966,159.876 C242.355,161.767 242.645,163.267 242.838,164.294 C242.934,164.807 243.006,165.201 243.054,165.467 C243.101,165.732 243.124,165.866 243.124,165.866 L243.123,165.858 C244.287,172.895 244.797,180.003 244.796,186.981 C244.8,208.257 240.043,228.318 234.734,241.292 C233.446,244.439 229.674,252.864 225.885,260.73 C223.99,264.665 222.088,268.467 220.492,271.401 C219.694,272.867 218.972,274.117 218.378,275.045 C218.081,275.507 217.815,275.89 217.599,276.168 C217.387,276.446 217.204,276.623 217.175,276.641 C216.924,276.831 216.756,277.119 216.714,277.431 C216.671,277.742 216.756,278.064 216.946,278.315 C217.136,278.565 217.424,278.733 217.736,278.776 C218.047,278.819 218.37,278.734 218.62,278.544 C219.221,278.086 219.862,277.46 220.583,276.684 C223.089,273.977 226.523,269.402 229.924,264.87 C231.622,262.607 233.306,260.359 234.843,258.38 C236.378,256.402 237.77,254.689 238.855,253.52 L238.883,253.489 C251.032,239.426 258.147,223.443 262.22,207.609 C266.294,191.773 267.334,176.077 267.335,162.527 C267.334,151.343 266.625,141.612 266.317,134.506 C265.689,120.096 261.995,95.121 251.132,70.925 C245.699,58.83 238.47,46.932 228.915,36.677 C219.361,26.422 207.475,17.815 192.777,12.337 C171.374,4.359 148.585,0.312 126.719,0.311 C107.815,0.312 89.599,3.336 73.567,9.486 C57.537,15.635 43.682,24.918 33.568,37.44 C5.609,72.043 -0.007,107.219 0,133.782 C0,146.56 1.293,157.365 2.008,165.144 C2.577,171.292 4.529,180.078 7.615,190.146 C12.246,205.24 19.433,223.174 28.382,239.054 C32.858,246.994 37.775,254.42 43.047,260.722 C48.322,267.023 53.951,272.206 59.888,275.633 C60.297,275.869 60.803,275.843 61.186,275.566 C61.568,275.29 61.751,274.817 61.655,274.355 C59.769,265.305 55.05,247.571 50.796,231.404 C48.67,223.324 46.662,215.641 45.187,209.658 C44.45,206.667 43.846,204.1 43.43,202.13 C43.222,201.146 43.06,200.311 42.953,199.655 C42.845,199.005 42.795,198.513 42.798,198.315 L42.8,198.25 L42.112,198.181 L42.72,198.489 C42.808,198.3 42.795,198.251 42.8,198.25 L42.112,198.181 L42.72,198.489 L41.768,198.007 L42.412,198.855 C42.588,198.719 42.672,198.58 42.72,198.489 L41.768,198.007 L42.412,198.855 L41.735,197.963 L41.735,199.082 C41.965,199.088 42.241,198.992 42.412,198.855 L41.735,197.963 L41.735,199.082 L41.735,197.982 L41.454,199.046 C41.533,199.067 41.628,199.083 41.735,199.082 L41.735,197.982 L41.454,199.046 L41.759,197.891 L40.576,198.057 C44.005,222.54 49.986,238.23 55.598,248.881 C58.402,254.205 61.112,258.268 63.334,261.519 C65.559,264.764 67.283,267.217 68.124,269.195 C68.364,269.755 68.988,270.045 69.571,269.867 C70.154,269.689 70.51,269.1 70.396,268.502 C69.342,262.958 68.876,255.739 68.877,247.569 C68.876,227.997 71.535,202.955 74.866,181.704 C76.531,171.079 78.365,161.397 80.112,153.822 C80.986,150.036 81.838,146.776 82.632,144.199 C83.421,141.629 84.174,139.719 84.753,138.747 L83.724,138.14 L84.222,139.226 C90.835,136.187 97.648,131.056 104.352,124.849 C114.403,115.537 124.197,103.79 132.442,92.99 C140.685,82.193 147.377,72.339 151.168,66.855 L150.185,66.175 L149.193,66.84 C149.208,66.863 159.904,82.823 174.705,100.385 C182.106,109.166 190.533,118.348 199.182,126.146 C207.836,133.943 216.696,140.366 225.078,143.607 C225.556,143.792 226.098,143.651 226.426,143.258 C226.754,142.864 226.795,142.306 226.527,141.869 C226.526,141.867 222.175,134.76 216.779,126.125 C211.381,117.489 204.945,107.333 200.75,101.2 L199.764,101.874 L198.862,102.659 L199.764,101.874 L198.778,102.549 C202.928,108.616 209.364,118.769 214.752,127.392 C217.447,131.704 219.882,135.636 221.643,138.489 C222.523,139.916 223.235,141.073 223.726,141.873 C224.218,142.673 224.489,143.115 224.489,143.116 L225.508,142.493 L225.938,141.378 C218.016,138.326 209.308,132.064 200.782,124.372 C187.984,112.835 175.564,98.105 166.363,86.271 C161.761,80.353 157.962,75.159 155.315,71.446 C153.991,69.59 152.956,68.104 152.252,67.083 C151.9,66.572 151.631,66.178 151.45,65.912 C151.269,65.646 151.178,65.51 151.178,65.51 C150.958,65.182 150.59,64.983 150.194,64.98 C149.799,64.978 149.428,65.171 149.203,65.496 C144.138,72.822 133.977,87.826 121.887,102.458 C115.843,109.773 109.319,116.991 102.728,123.096 C96.14,129.201 89.478,134.188 83.226,137.054 C83.004,137.156 82.819,137.323 82.695,137.533 C81.929,138.842 81.173,140.833 80.348,143.496 C77.49,152.78 74.042,170.114 71.287,189.497 C68.535,208.876 66.488,230.262 66.488,247.569 C66.488,255.832 66.952,263.163 68.048,268.947 L69.222,268.725 L70.32,268.254 C69.299,265.888 67.514,263.406 65.307,260.17 C61.995,255.325 57.699,248.822 53.57,238.966 C49.443,229.113 45.491,215.911 42.942,197.725 C42.875,197.25 42.528,196.858 42.064,196.736 C41.968,196.711 41.857,196.693 41.735,196.693 C41.56,196.692 41.363,196.733 41.195,196.813 C40.894,196.956 40.719,197.178 40.625,197.34 C40.486,197.591 40.461,197.759 40.435,197.907 C40.414,198.055 40.409,198.183 40.408,198.315 C40.41,198.78 40.479,199.324 40.595,200.041 C41.03,202.696 42.192,207.59 43.753,213.779 C46.095,223.051 49.331,235.173 52.31,246.554 C55.288,257.931 58.012,268.58 59.316,274.842 L60.485,274.599 L61.082,273.564 C53.615,269.261 46.412,261.816 39.836,252.673 C29.965,238.96 21.492,221.455 15.302,205.157 C9.109,188.868 5.194,173.736 4.387,164.925 C3.667,157.095 2.39,146.404 2.39,133.782 C2.397,107.541 7.889,73.044 35.427,38.941 C45.23,26.805 58.71,17.745 74.423,11.717 C90.133,5.689 108.07,2.7 126.719,2.701 C148.29,2.7 170.813,6.698 191.943,14.576 C206.265,19.916 217.829,28.286 227.166,38.306 C241.171,53.332 250.146,72.087 255.721,89.76 C261.296,107.427 263.471,124.009 263.93,134.609 C264.241,141.773 264.945,151.44 264.945,162.527 C264.945,175.955 263.91,191.452 259.906,207.014 C255.901,222.577 248.936,238.196 237.074,251.927 L237.978,252.708 L237.102,251.896 C235.759,253.345 234.101,255.421 232.281,257.788 C229.555,261.335 226.479,265.529 223.716,269.111 C222.335,270.901 221.032,272.539 219.9,273.856 C218.774,275.171 217.793,276.176 217.175,276.641 C216.649,277.04 216.547,277.789 216.946,278.315 C217.345,278.84 218.094,278.943 218.62,278.544 C218.948,278.289 219.199,277.999 219.486,277.634 C220.012,276.956 220.607,276.021 221.289,274.858 C223.662,270.802 227.021,263.98 230.074,257.485 C233.126,250.991 235.855,244.858 236.945,242.197 C242.379,228.899 247.182,208.617 247.186,186.981 C247.186,179.887 246.668,172.65 245.48,165.469 L245.479,165.461 C245.474,165.431 242.734,149.527 237.004,130.347 C234.139,120.757 230.526,110.347 226.122,100.683 C221.716,91.018 216.527,82.095 210.446,75.47 C210.092,75.085 209.53,74.974 209.056,75.198 C208.583,75.421 208.31,75.925 208.383,76.443 C208.414,76.632 208.432,76.648 208.446,76.697 C208.494,76.831 208.531,76.91 208.6,77.066 C208.855,77.633 209.445,78.882 210.296,80.706 C213.27,87.076 219.396,100.353 224.771,114.117 C227.458,120.998 229.957,128 231.778,134.304 C233.6,140.602 234.733,146.224 234.728,150.219 C234.729,151.463 234.619,152.545 234.407,153.423 L235.569,153.703 L236.648,153.19 C229.428,137.981 216.041,118.772 200.665,101.09 C200.249,100.612 199.535,100.541 199.033,100.929 C198.531,101.317 198.419,102.025 198.778,102.549 L199.764,101.874" fill="#1A1919"/>
    </g>
    <path d="M240.151,78.019 L240.191,78.083 C240.629,78.778 244.548,85.124 248.347,94.732 C252.148,104.339 255.822,117.205 255.82,130.92 C255.817,142.981 252.997,155.681 244.954,167.532 C244.583,168.077 244.725,168.82 245.271,169.191 C245.817,169.562 246.56,169.42 246.931,168.874 C255.283,156.574 258.213,143.347 258.21,130.92 C258.207,116.322 254.194,102.802 250.194,92.916 C246.191,83.03 242.192,76.776 242.164,76.732 C241.809,76.176 241.07,76.013 240.514,76.369 C239.958,76.724 239.796,77.463 240.151,78.019" fill="#1A1919"/>
    <path d="M128.424,47.69 C128.409,47.71 117.853,61.911 106.755,80.46 C101.206,89.735 95.521,100.097 90.948,110.332 C86.377,120.57 82.911,130.671 81.829,139.501 C81.749,140.156 82.215,140.751 82.87,140.831 C83.525,140.911 84.121,140.445 84.201,139.79 C85.228,131.352 88.612,121.414 93.13,111.306 C99.905,96.139 109.215,80.573 116.827,68.816 C120.633,62.936 124.014,58.007 126.443,54.55 C127.657,52.822 128.633,51.461 129.305,50.534 C129.641,50.07 129.901,49.714 130.076,49.475 C130.252,49.236 130.341,49.116 130.342,49.116 C130.735,48.586 130.625,47.838 130.095,47.444 C129.566,47.05 128.817,47.16 128.424,47.69" fill="#1A1919"/>
    <path d="M69.502,92.914 C69.488,92.975 54.81,142.137 54.805,194.864 C54.808,219.09 57.901,244.081 67.016,265.44 C67.275,266.047 67.977,266.329 68.584,266.07 C69.191,265.81 69.473,265.108 69.214,264.502 C60.282,243.587 57.192,218.887 57.195,194.864 C57.194,168.719 60.844,143.383 64.496,124.596 C66.322,115.203 68.148,107.446 69.517,102.041 C70.201,99.338 70.771,97.224 71.169,95.787 C71.368,95.068 71.524,94.519 71.631,94.151 C71.737,93.782 71.792,93.598 71.792,93.597 C71.98,92.965 71.621,92.299 70.988,92.111 C70.356,91.922 69.691,92.282 69.502,92.914" fill="#1A1919"/>
    <path d="M176.88,70.41 L199.764,101.874 L176.88,70.41" fill="#7D573B"/>
    <path d="M175.914,71.112 L198.797,102.577 C199.186,103.111 199.933,103.229 200.466,102.841 C201,102.453 201.118,101.705 200.73,101.172 L177.846,69.707 C177.458,69.173 176.711,69.055 176.177,69.443 C175.644,69.831 175.525,70.579 175.914,71.112" fill="#1A1919"/>
    <path d="M270.287,575.399 L305.094,563.607 C305.586,563.44 305.914,562.974 305.904,562.455 C305.895,561.936 305.551,561.482 305.053,561.333 L257.516,547.091 C256.884,546.902 256.219,547.26 256.03,547.892 C255.841,548.523 256.199,549.189 256.831,549.378 L300.785,562.546 L269.521,573.138 C268.896,573.349 268.562,574.027 268.773,574.652 C268.985,575.276 269.662,575.611 270.287,575.399" fill="#1A1919"/>
    <path d="M278.33,543.169 L307.238,553.706 C307.857,553.932 308.542,553.613 308.768,552.994 C308.994,552.374 308.675,551.689 308.055,551.463 L279.148,540.926 C278.529,540.701 277.844,541.02 277.618,541.639 C277.392,542.258 277.711,542.944 278.33,543.169" fill="#1A1919"/>
    <path d="M313.705,537.988 L234.005,561.977 C233.374,562.167 233.016,562.833 233.206,563.464 C233.396,564.095 234.062,564.453 234.693,564.263 L314.393,540.274 C315.024,540.084 315.382,539.418 315.192,538.787 C315.002,538.155 314.336,537.798 313.705,537.988" fill="#1A1919"/>
    <path d="M289.153,582.241 L301.995,576.404 C302.595,576.131 302.86,575.424 302.588,574.823 C302.315,574.223 301.607,573.958 301.007,574.231 L288.165,580.068 C287.565,580.34 287.3,581.048 287.572,581.648 C287.845,582.248 288.553,582.514 289.153,582.241" fill="#1A1919"/>
    <path d="M297.597,537.921 L313.065,543.466 C313.686,543.689 314.369,543.366 314.591,542.746 C314.814,542.125 314.491,541.441 313.871,541.219 L298.403,535.674 C297.782,535.452 297.099,535.774 296.876,536.395 C296.654,537.016 296.977,537.699 297.597,537.921" fill="#1A1919"/>
    <path d="M221.981,92.177 C218.725,86.152 215.112,80.675 211.127,76.184 C224.235,71.678 234.816,66.532 243.342,61.055 C247.039,67.657 250.156,74.509 252.753,81.385 C250.608,82.275 248.413,83.147 246.189,84.01 C243.956,79.497 242.282,76.824 242.209,76.709 C241.972,76.341 241.574,76.139 241.166,76.139 C240.939,76.139 240.709,76.202 240.502,76.334 C239.927,76.703 239.759,77.466 240.127,78.041 C240.196,78.15 241.765,80.652 243.881,84.9 C236.892,87.546 229.559,90.02 221.981,92.177" fill="#A0754E"/>
    <path d="M97.541,96.671 C88.833,95.512 80.149,94.118 71.605,92.499 C71.454,92.307 71.262,92.147 71.011,92.07 C70.896,92.036 70.781,92.02 70.668,92.02 C70.442,92.02 70.224,92.084 70.035,92.196 C49.54,88.239 29.955,83.008 13.031,76.712 C17.113,66.653 22.666,56.332 30.143,45.975 C46.441,59.461 71.695,75.783 104.849,83.541 C102.374,87.766 99.904,92.172 97.541,96.671" fill="#A0754E"/>
    <path d="M177.613,99.994 C173.674,95.361 170.017,90.825 166.743,86.63 C172.641,85.895 178.688,84.859 184.876,83.491 L195.461,98.044 C192.321,98.531 189.169,98.964 186,99.291 C183.272,99.572 180.461,99.797 177.613,99.994" fill="#A0754E"/>
    <path d="M198.206,97.617 L187.499,82.896 C195.136,81.12 202.14,79.159 208.559,77.046 C208.717,77.403 209.005,78.02 209.563,79.214 C211.992,84.404 214.192,89.239 216.191,93.749 C210.303,95.27 204.294,96.585 198.206,97.617" fill="#A0754E"/>
    <path d="M124.265,99.472 C116.313,98.867 108.269,98.053 100.225,97.026 C102.566,92.61 105.008,88.284 107.45,84.135 C115.629,85.913 124.276,87.164 133.374,87.723 C130.541,91.516 127.483,95.486 124.265,99.472" fill="#A0754E"/>
  </g>
</svg>
